<svg id="Capa_1" data-name="Capa 1" xmlns="http://www.w3.org/2000/svg" viewBox="0 0 320.89 511.94"><defs><style>.cls-1{fill:#fff;}</style></defs><title>baby_1</title><path class="cls-1" d="M202.55,479.28a10,10,0,0,0-13,5.56A11.68,11.68,0,0,1,178.71,492H142.18a11.68,11.68,0,0,1-10.83-7.16,10,10,0,0,0-18.57,7.44A31.45,31.45,0,0,0,142.18,512h36.53a31.44,31.44,0,0,0,29.4-19.72A10,10,0,0,0,202.55,479.28Z"/><path class="cls-1" d="M320,427.76a49.37,49.37,0,0,0-23.68-33.29,49.59,49.59,0,0,0,17.77-46,126.09,126.09,0,0,0-69.92-94.82A114.72,114.72,0,0,0,191.75,64.8a43.27,43.27,0,0,0,10.13-27.93A36.91,36.91,0,0,0,165,0h0a33.53,33.53,0,0,0-21.64,7.51,27.31,27.31,0,0,0-9.85,21.19,10,10,0,0,0,20,0,7.38,7.38,0,0,1,2.74-5.89A13.56,13.56,0,0,1,165,20h0a16.89,16.89,0,0,1,16.87,16.87,23.59,23.59,0,0,1-23.59,23.59h0c-.25,0-.49,0-.73,0A114.7,114.7,0,0,0,76.73,253.65,126.13,126.13,0,0,0,6.81,348.48a49.67,49.67,0,0,0,17.77,46,49.35,49.35,0,0,0-14.09,73.11L31.9,494.94a44.59,44.59,0,0,0,35.13,17,44,44,0,0,0,22.1-5.9,44.65,44.65,0,0,0,19-55.11l-13-32.23a50.86,50.86,0,0,0-3-6.2h73.35a10,10,0,1,0,0-20H73.09V371.42A4.93,4.93,0,0,1,78,366.5H242.88a4.93,4.93,0,0,1,4.92,4.92v22.47a49.33,49.33,0,0,0-22.05,24.81l-13,32.23a44.65,44.65,0,0,0,19,55.11,44,44,0,0,0,22.1,5.9,44.57,44.57,0,0,0,35.13-17l21.41-27.36A49.34,49.34,0,0,0,320,427.76ZM65.68,175.23A94.77,94.77,0,1,1,160.45,270,94.88,94.88,0,0,1,65.68,175.23Zm10.91,251,13,32.23a24.45,24.45,0,0,1-41.93,24.21L26.24,455.25a29.36,29.36,0,1,1,50.35-29.07ZM243,326.5a10,10,0,0,0-10,10v10H88v-10a10,10,0,0,0-20,0v12.1a25,25,0,0,0-14.92,22.82v14.12a29.78,29.78,0,0,1-26.5-34.08A105.55,105.55,0,0,1,93.3,268.25a114.52,114.52,0,0,0,134.29,0,105.55,105.55,0,0,1,66.71,83.21,29.78,29.78,0,0,1-26.5,34.08V371.42A25,25,0,0,0,253,348.63V336.5A10,10,0,0,0,243,326.5Zm51.7,128.75-21.41,27.37a24.45,24.45,0,0,1-41.93-24.21l13-32.23a29.36,29.36,0,1,1,50.35,29.07Z"/><path class="cls-1" d="M212.24,395.43a10,10,0,1,0,2.93,7.07A10.08,10.08,0,0,0,212.24,395.43Z"/><path class="cls-1" d="M188,209.38A10,10,0,0,0,174,210.85a17.35,17.35,0,0,1-27,0,10,10,0,0,0-15.54,12.6,37.38,37.38,0,0,0,58.09,0A10,10,0,0,0,188,209.38Z"/><path class="cls-1" d="M135.18,168.16a23.3,23.3,0,0,0-32.91,0,10,10,0,1,0,14.14,14.14,3.28,3.28,0,0,1,4.62,0,10,10,0,1,0,14.15-14.14Z"/><path class="cls-1" d="M218.62,168.16a23.3,23.3,0,0,0-32.91,0,10,10,0,0,0,14.15,14.14,3.28,3.28,0,0,1,4.62,0,10,10,0,1,0,14.14-14.14Z"/></svg>