<svg id="Слой_1" data-name="Слой 1" xmlns="http://www.w3.org/2000/svg" xmlns:xlink="http://www.w3.org/1999/xlink" viewBox="0 0 255.66 255.66"><defs><style>.cls-1{fill:none;}.cls-2{fill:#1597d2;}.cls-3{fill:#fff;}.cls-4{clip-path:url(#clip-path);}.cls-5{fill:url(#linear-gradient);}.cls-6{fill:#01a4f3;}.cls-7{fill:#01c9f4;}.cls-8{fill:#d4eef6;}.cls-9{fill:#c1d5de;}.cls-10{fill:#5bb5d3;}.cls-11{fill:#54a7c3;}.cls-12{fill:#53a6c2;}.cls-13{fill:#59b4d1;}.cls-14{fill:#0d5690;}.cls-15{fill:#024173;}.cls-16{fill:#276fa4;}.cls-17{fill:#29689a;}.cls-18{fill:#b8e3f0;}.cls-19{fill:#d9edf4;}.cls-20{fill:#d8edf4;}.cls-21{fill:#c5d8df;}.cls-22{fill:#eaeaea;}.cls-23{fill:#01d2fa;}.cls-24{fill:#03d5f8;}.cls-25{fill:#0499fa;}.cls-26{fill:#07a4f9;}.cls-27{fill:#49e2fb;}.cls-28{fill:#08caf8;}.cls-29{fill:#44e0fa;}.cls-30{fill:#00bcf5;}.cls-31{fill:#01c9f5;}.cls-32{fill:#d3d4d4;}.cls-33{fill:#c0c3c5;}.cls-34{fill:#01dbf8;}.cls-35{fill:#7ee1f7;}.cls-36{fill:#e3f2f7;}.cls-37{fill:#4de5fc;}.cls-38{fill:#63e9fa;}</style><clipPath id="clip-path"><path id="SVGID" class="cls-1" d="M241,127.83a113.2,113.2,0,1,1-113.2-113.2A113.2,113.2,0,0,1,241,127.83Z"/></clipPath><linearGradient id="linear-gradient" x1="127.83" y1="241.03" x2="127.83" y2="14.63" gradientUnits="userSpaceOnUse"><stop offset="0.13" stop-color="#00b8ff"/><stop offset="0.28" stop-color="#33c6ff"/><stop offset="0.47" stop-color="#6cd6ff"/><stop offset="0.64" stop-color="#99e3ff"/><stop offset="0.79" stop-color="#b9ecff"/><stop offset="0.91" stop-color="#cdf1ff"/><stop offset="1" stop-color="#d4f3ff"/></linearGradient></defs><title>Vector Smart Object15</title><path class="cls-2" d="M255.66,127.83A127.83,127.83,0,1,1,127.83,0,127.83,127.83,0,0,1,255.66,127.83Z"/><path class="cls-3" d="M249.81,127.83a122,122,0,1,1-122-122A122,122,0,0,1,249.81,127.83Z"/><path class="cls-3" d="M242.79,127.83a115,115,0,1,1-115-115A115,115,0,0,1,242.79,127.83Z"/><g class="cls-4"><path class="cls-5" d="M241,127.83a113.2,113.2,0,1,1-113.2-113.2A113.2,113.2,0,0,1,241,127.83Z"/></g><path class="cls-6" d="M112.85,167c1.73,1.08,1.94,2.73,1.93,4.61-.06,9,0,17.95,0,26.93,0,7.58-3,10.6-10.5,9-4.13-.89-7.69-1.08-11.41.77a5.31,5.31,0,0,1-2,.13c-4.59.6-5.1.24-5.13-4.23-.07-10.83,0-21.67,0-32.5a6.32,6.32,0,0,1,.84-3.82,3.59,3.59,0,0,1,2.73-1C97.15,166.79,105,166.43,112.85,167Z"/><path class="cls-7" d="M86.79,167.8c0,12.13.13,24.26-.08,36.39-.06,3.31.81,4.73,4.16,4.22-4.34,1.05-8.52.25-12.57-1.27-2-.77-4-1.15-6.06-.17a13.06,13.06,0,0,1-5.85.81c-3.75-.06-5.92-1.75-6.89-5.35a23.43,23.43,0,0,1-.52-6.25c0-8,0-15.92,0-23.88,0-1.68-.35-3.63,1.77-4.53a4.43,4.43,0,0,1,2.77-1c7-.09,13.91-.14,20.86,0a3.89,3.89,0,0,1,1.9.53Z"/><path class="cls-7" d="M60.8,102.68A3.12,3.12,0,0,1,59.11,100c-.31-6.84.29-13.51,4.4-19.36a5.28,5.28,0,0,1,3.74-1c6.51,0,13-.13,19.53.05,6.74-.18,13.49-.06,20.23-.06a5.12,5.12,0,0,1,3.73,1.08l.47.64c-1.25,1.24-2.87,1-4.39,1-5.09.06-10.19.11-15.28,0-2.68-.06-3.82.89-3.73,3.65.13,3.87.06,7.75,0,11.62,0,1.54.13,3.13-.87,4.48a3,3,0,0,1-1.81.74C77,103,68.91,103.34,60.8,102.68Z"/><path class="cls-6" d="M86.79,102c0-5.63.2-11.27-.07-16.89-.16-3.22,1-3.87,4-3.79,6.85.19,13.69.07,20.54.07,3.17,5.78,3.91,12,3.55,18.47-.06,1.18-.2,2.2-1.44,2.69a167,167,0,0,1-25.5.16A2.31,2.31,0,0,1,86.79,102Z"/><path class="cls-8" d="M86.8,80.7l-23.29,0c.47-3.2,2.8-5.39,4.4-8s3.81-5.13,5.46-7.86c1.41-2.33,2.9-4.9,0-7.4a1.21,1.21,0,0,1-.16-1.16c2.77-2.41,1.1-5.58,1.48-8.39s-.59-5.71.59-8.46c1.26.92,1.12,2.31,1.17,3.61.08,2.53,0,5.06,0,7.59.07,3.42.34,3.61,3.86,3.77,2.26.1,4.66-.56,6.7,1a6.59,6.59,0,0,1,.76,3.82q.06,8.72,0,17.43C87.85,78.09,87.83,79.53,86.8,80.7Z"/><path class="cls-9" d="M86.8,80.7l0-25.22a14.75,14.75,0,0,1,12-.08c1.46,0,2.92.61,1.46,2-2.76,2.59-1.26,4.83.12,7,2.84,4.44,5.9,8.73,8.89,13.08a6.78,6.78,0,0,1,1.51,3.24Z"/><path class="cls-6" d="M98.76,55.4l-12,.08c-3,0-5.92-.19-8.86-.06-2,.08-2.73-.44-2.67-2.53.15-4.49.06-9,.07-13.47.58-1.35,1.72-1.54,3-1.54,5.83,0,11.66,0,17.49,0,1.54,0,2.91.27,2.85,2.29a91.54,91.54,0,0,0,0,14.53Z"/><path class="cls-10" d="M86.79,102l.68,0c.94,4.3.94,4.23,5.55,4.33,6.58.13,13.16-.42,19.73.29l.58.77c-.63,2.07-2.46,1.57-3.84,1.59-7.57.06-15.14.15-22.7,0-7.41.18-14.82.11-22.22,0-1.39,0-3.25.42-3.78-1.73a5.69,5.69,0,0,0,0-4.54c1-1.14,2.26-.69,3.42-.7C71.74,101.94,79.27,102,86.79,102Z"/><path class="cls-6" d="M86.8,107.94c7.69,0,15.38,0,23.07,0,1.16,0,2.44.43,3.46-.56,2.3,1.27,1.16,3.42,1.35,5.24a4,4,0,0,1-1.09.69c-8.94.75-17.89.24-26.84.29-7.85.18-15.69.06-23.54.06a5.63,5.63,0,0,1-3.49-.78c0-2.46,2-1.84,3.19-1.88,5.07-.2,10.16-.07,15.24-.09a26.9,26.9,0,0,1,3,0C83.71,111.19,85.67,110.38,86.8,107.94Z"/><path class="cls-7" d="M86.8,107.94c.55,3.17-.72,4.17-3.94,4-6.63-.25-13.27-.1-19.9,0-1.16,0-2.46-.46-3.44.64a5.19,5.19,0,0,1,1.06,3.74c0,13.72.16,27.45-.08,41.17,0,1.3.12,2.67-1,3.69-1-1.63-.61-3.45-.61-5.17q-.09-20.89,0-41.8c0-2.42-.71-5.2,1.88-7,1,1.13,2.27.68,3.43.69C71.74,108,79.27,107.93,86.8,107.94Z"/><path class="cls-11" d="M112.75,106.59c-1,1.11-2.25.66-3.41.67-6.15,0-12.3,0-18.46,0-4.54,0-5-.7-3.41-5.31,7.57,0,15.14,0,22.71,0,1.06,0,2.22-.36,3.14.52C112.39,103.76,112.87,105.22,112.75,106.59Z"/><path class="cls-12" d="M112.85,167c-.9,1.19-2.21.77-3.36.78-7.57,0-15.13,0-22.7,0v0a4.32,4.32,0,0,1,.08-5.54,5.3,5.3,0,0,1,3.15-.81c6.5-.06,13-.11,19.51,0,1.3,0,3-.26,3.35,1.82Z"/><path class="cls-13" d="M86.81,162.51c0,1.76,0,3.51,0,5.27h-26a7.18,7.18,0,0,0-.1-5.26,3.35,3.35,0,0,1,2.69-1c7-.12,14.05-.16,21.07,0a4,4,0,0,1,1.89.54Z"/><path class="cls-6" d="M112.89,163.29c-.79-1.1-2-.81-3-.81-7.68,0-15.37,0-23.06,0v-.07a3.8,3.8,0,0,1,0-4.86,3.61,3.61,0,0,1,2.16-.71c8.21,0,16.43-.45,24.65.21a3.47,3.47,0,0,1,1.09.69C114.88,159.87,115.09,162,112.89,163.29Z"/><path class="cls-7" d="M86.78,157.91c0,1.51,0,3,0,4.53l-26.1.07c-.89,0-1.22-.5-1.18-1.33,0-1.13,0-2.27.05-3.4a3.18,3.18,0,0,1,2.09-.88c8-.09,16.07-.52,24.1.22A2.37,2.37,0,0,1,86.78,157.91Z"/><path class="cls-14" d="M114.65,157.77l-.29,0-.28,0c-1.2-1.25-1.08-2.84-1.08-4.37q0-18.21,0-36.42c0-1.55,0-3.12,1.05-4.41a.89.89,0,0,1,.64.06Z"/><path class="cls-15" d="M98.65,54.69a39.87,39.87,0,0,1,0-14.53Z"/><path class="cls-16" d="M87.14,139.45c1.31,5.38.6,10.81.46,16.23a2.34,2.34,0,0,1-1.44,2l-26.6.06q0-22.6,0-45.2H86.8c1.19,1.38.94,3.07,1,4.69,0,1.31,0,2.63,0,3.94-.19,4.35-.81,8.94,5.61,9.28a1.48,1.48,0,0,1-.36,1.09c-1,1-3.41-.55-5.12.66a2.47,2.47,0,0,0-.63.63L87,135.94"/><path class="cls-17" d="M86.22,112.59l27.82,0q0,22.6,0,45.2l-27.3.17-.62-.19Z"/><path class="cls-18" d="M145.11,198.06c-2.17-2.17-4.08-4.5-4.84-7.57a57.89,57.89,0,0,1-.93-7.05c-.46-3.9-.82-7.82-1.2-11.74-.34-3.62-.61-7.25-1-10.86s-.78-6.92-1.13-10.38c-.26-2.56-.44-5.13-.7-7.7-.47-4.76-1-9.53-1.46-14.3-.35-3.46-.69-6.93-.95-10.41a18.38,18.38,0,0,1-.33-3.92c-.36-.95.13-1.28.94-1,4.93,1.38,10,1.4,15.05,1.54,1.91.06,2.49.8,2.25,2.74-.16,1.25.18,2.54-.38,3.74a3.55,3.55,0,0,1-2.27.73,83.43,83.43,0,0,0-9.31,1.6c-2.2.48-2.38.64-2.14,2.84.58,5.4,1,10.81,1.61,16.21.66,6.06,1.14,12.13,1.71,18.2.76,8.18,1.51,16.37,2.32,24.55A16.56,16.56,0,0,0,145,193.4a12.23,12.23,0,0,0,8.28,4.93,3.92,3.92,0,0,0,1.32.2c2.36-.07,4.72,0,7.08,0,2.94-.05,5.87,0,8.8,0a3.65,3.65,0,0,1,1.63.25c.47,1-.48.87-.9.91-1.36.15-2.74,0-4.11.07h-.77c-2.15,0-2.15,0-2.31,1.81-.08.06-.17.15-.26.15-4.91.1-9.87,1-14.63-1-.79-.37-1.63-.65-2.39-1.09A6.06,6.06,0,0,1,145.11,198.06Z"/><path class="cls-19" d="M164,201.41l-1.11-2.14c2.41,0,4.7,0,7,0,.79,0,1.62.26,2.36-.25a2.4,2.4,0,0,1,1.65-.68,12,12,0,0,0,8.55-6c1.62-2.69,1.51-5.76,1.82-8.72.82-7.83,1.63-15.66,2.35-23.49.63-6.83,1.43-13.63,2-20.47.17-2.07.42-4.14.63-6.21.4-2.55.47-5.14.81-7.7.15-1.14-.26-1.74-1.48-1.69a15.69,15.69,0,0,1-1.68,0c-.6,0-1.28.09-1.57-.68a2.68,2.68,0,0,0,1.4-2.36c-.19-3.74.63-7.37,1.18-11,.17-.68.76-.72,1.29-.87,1.36-.39,2.77-.58,4.11-1,1.07-.11,1.45.11,1.3,1.43-.54,4.8-.83,9.64-1.3,14.46-.44,4.51-1,9-1.47,13.52-.36,3.61-.61,7.24-1,10.85s-.78,7.11-1.15,10.67c-.34,3.41-.64,6.83-1,10.24-.37,3.71-.84,7.41-1.13,11.12-.18,2.32-.58,4.62-.65,6.93a15.47,15.47,0,0,1-2.79,8.05c-.29,1.49-1.73,2.07-2.53,3.16a16.13,16.13,0,0,1-10.49,3.37c-2.23-.14-4.47.12-6.69-.13A.94.94,0,0,1,164,201.41Z"/><path class="cls-20" d="M150.31,121.09c.08-1.51-.22-3,.24-4.53.19-.65-.18-1-.75-1.31a3.58,3.58,0,0,0-1.65-.2,78.62,78.62,0,0,1-12.82-1,6.89,6.89,0,0,1-1.85-.64c-.76-.33-.89.06-.88.67a33.89,33.89,0,0,1-.59-5.5.66.66,0,0,1,.72-.08c1.84,1,3.84.84,5.82.83,4.63,0,9.22.57,13.83.82,4.41.24,8.81.75,13.24.73,2.78,0,5.56.33,8.34.28a32.63,32.63,0,0,1,.83,5.9,15.47,15.47,0,0,1,.31,4.94,1.07,1.07,0,0,1-.45.31c-1.58.42-3.13,0-4.68-.18-2.16-.22-4.33-.38-6.49-.7a11,11,0,0,0-3.53-.17c-2.52-.13-5,.25-7.53.3C151.69,121.63,150.89,121.76,150.31,121.09Z"/><path class="cls-21" d="M174.11,111.39c-5.77.6-11.52-.14-17.27-.38-4.28-.17-8.56-.55-12.84-.91-2.79-.23-5.57-.2-8.35-.22a8.16,8.16,0,0,1-3.64-1.25c.24-1,1.07-.58,1.63-.58q24.27,0,48.56,0h11.12c-1.25,1.11-2.88,1.08-4.37,1.5-.28.08-.61,0-.81.32a1.56,1.56,0,0,1-1.13.69,65.53,65.53,0,0,1-11.34,1.28A1.93,1.93,0,0,1,174.11,111.39Z"/><path class="cls-22" d="M181.73,198.05c.56-1.15,1.81-1.68,2.45-2.74.53.89,1.5.71,2.3.9a25,25,0,0,1,6.19,2c2,1.06,2.09,2.17.2,3.29-2.52,1.49-5.39,1.9-8.23,2.39a92.09,92.09,0,0,1-11.59,1,102.88,102.88,0,0,1-12.65-.33,95.9,95.9,0,0,1-9.72-1.37,14.74,14.74,0,0,1-3.92-1.12c-2.83-1.43-2.84-1.41-1.65-4a2.75,2.75,0,0,1,1.54,1.2,2.91,2.91,0,0,0,2.11,2,33.28,33.28,0,0,0,8.45,1.64c2.52.22,5.07.45,7.57.42a64.08,64.08,0,0,0,11.06-.69,30.67,30.67,0,0,0,5.93-1.33c.65-.26,1.47-.43,1.62-1.23s-.66-1-1.16-1.44A1.79,1.79,0,0,1,181.73,198.05Z"/><path class="cls-23" d="M153.94,72.3A5.72,5.72,0,0,1,161,73.93a6.14,6.14,0,0,1,0,7.6,5.84,5.84,0,0,1-7.12,1.53,8.28,8.28,0,0,0-.78-3,4.82,4.82,0,0,1-.22-3.67c1.34-1.23,2.95-.66,4.48-.67.66,0,1.58.6,1.91-.22s-.44-1.46-1-2c-1.13-1-2.49-.63-3.78-.66A.63.63,0,0,1,153.94,72.3Z"/><path class="cls-24" d="M163.14,95.85c2.26-.2,3.72.63,4.32,2.45s-.05,3.3-1.9,4.44a12.24,12.24,0,0,0-1.84-.66,2.47,2.47,0,0,1-2-2.52c.42-1,1.39-1.23,2.25-1.62.26-.12.64-.14.67-.5s-.32-.46-.57-.63S163.09,96.55,163.14,95.85Z"/><path class="cls-25" d="M153.05,76.29a8.07,8.07,0,0,0,.83,4.56c.34.61.85,1.48,0,2.21a5.83,5.83,0,0,1,.07-10.76l.33.31c-.08.6-.59.9-.9,1.34A2,2,0,0,0,153.05,76.29Z"/><path class="cls-26" d="M161.89,99.5a2.93,2.93,0,0,0,2.53,2.42c.48.08,1,.2,1.14.82a3.65,3.65,0,0,1-4-6.08C162.13,97.56,160.92,98.65,161.89,99.5Z"/><path class="cls-27" d="M161.89,99.5c-1,0-1-.64-.82-1.31.13-.52.35-1,.53-1.53a1.78,1.78,0,0,1,1.54-.81c.47.65,1.39.48,1.9,1.09s.66.86-.24,1.11A7.66,7.66,0,0,0,161.89,99.5Z"/><path class="cls-28" d="M172.52,82.11c1,.52,1.55,1.27,1.09,2.42a2,2,0,0,1-3.74-1.22c.91-.09,1.92,0,2.17-1.25C172.07,81.91,172.37,81.92,172.52,82.11Z"/><path class="cls-29" d="M172.52,82.11c-.55,1.4-1.51,1.83-2.65,1.2C170.56,81.82,171.18,81.54,172.52,82.11Z"/><path class="cls-30" d="M163.51,121.12a83,83,0,0,1,8.31.85,20.84,20.84,0,0,0,2.86.14,1.14,1.14,0,0,1,.11,1.54,2.07,2.07,0,0,1-1.59.36c-4.25-.43-8.52-.43-12.77-.79a84.07,84.07,0,0,0-8.84-.06c-1.39,0-2,.62-1.92,2,.07,3.2-.33,6.39.1,9.59.24,1.79-.05,3.63,0,5.46.18,5.89.45,11.77,1,17.63.23,2.43.64,4.84,1,7.25a122.78,122.78,0,0,0,2.51,12.38,76.88,76.88,0,0,0,4.91,14.72,2.47,2.47,0,0,1,.36,1.15c-.52.8-1.37.8-2.17.82-1.28,0-2.53.27-3.79.39-.55.05-1.35.09-1.39.69,0,.76.81.83,1.37.92,1.86.27,3.73.44,5.61.53a4.28,4.28,0,0,1,2.09.29,1.84,1.84,0,0,1,.32,1.93l-7.3,0c-.15-1-.75.25-1-.21-4.74-.29-9.16-4-10.57-8.79-.92-3.11-.91-6.31-1.24-9.47-.76-7.16-1.4-14.33-2.08-21.5-.45-4.84-.85-9.69-1.31-14.54-.55-5.7-1.27-11.39-1.68-17.1-.31-4.3-1.37-3.31,3-4.4a87.72,87.72,0,0,1,10.93-1.81c3.27.26,6.52-.52,9.79-.16C161.23,121.15,162.38,120.82,163.51,121.12Z"/><path class="cls-31" d="M161.59,198.93a3,3,0,0,1-.3-1.79c1.69-.86,3.46-.23,5-.34-1.5-.27-2.4-1.28-2.7-3.2a.59.59,0,0,1,.33-.36,17,17,0,0,1,5.61-.07,50.8,50.8,0,0,1,7.23,1.05c1.34.37,2.41-.58,3.57-1.05.73-.3,1.42-.89,2.26-.31-2.33,3.91-6,5.63-10.34,6.15Z"/><path class="cls-32" d="M181.73,198.05a1.63,1.63,0,0,1,.45.09c.83.46,2,.79,1.91,1.92s-1.22,1.3-2,1.59a41.42,41.42,0,0,1-10.41,1.88c-1.86.16-3.73.12-5.6.23a63.92,63.92,0,0,1-7.56-.39,48.34,48.34,0,0,1-6.47-.73,24.24,24.24,0,0,1-4.87-1.63,1.06,1.06,0,0,1-.49-1.75l2.12.92c1.37,1.36,3.19,1.43,4.91,1.65a75.68,75.68,0,0,0,15.22.23,19.57,19.57,0,0,1-3.25.05c-.5,0-1.18.12-1.31-.68,1.82,0,3.65-.16,5.45,0C174.24,201.85,178.11,200.43,181.73,198.05Z"/><path class="cls-33" d="M164.34,201.43c1.46.6,3,.16,4.48.27.75.06,1.51,0,2.26,0l.06.41a35.86,35.86,0,0,1-3.69.49,83.76,83.76,0,0,1-10.39,0,27.25,27.25,0,0,1-7.27-1.21c-.94-.36-1.23-.73-1-1.21,5,2,10.17,1,15.27,1.23Z"/><path class="cls-31" d="M153.29,198.7a3.62,3.62,0,0,1,.81-.6.59.59,0,0,1,.84.33c0,.1-.42.32-.65.48A1.15,1.15,0,0,1,153.29,198.7Z"/><path class="cls-34" d="M182.62,192.86c-1.61.11-2.82,1.26-4.3,1.72-.42.13-.76.38-1.28.23a47.3,47.3,0,0,0-13.3-1.35,4.5,4.5,0,0,1-.9-2.53A47.93,47.93,0,0,1,164,168.79a62.47,62.47,0,0,1,8.23-17.74c.4-.6.64-1.54,1.68-1.48a2.2,2.2,0,0,1,.14,1.63c-1,9.19-2.64,18.3-4,27.45-.33,2.26-.6,4.53-.9,6.8-.19,1.51.07,1.75,1.64,1.78a16,16,0,0,0,3.77-.48,4,4,0,0,0,2.79-2.59,76.23,76.23,0,0,0,4.18-11.92,127.68,127.68,0,0,0,3.76-25c.2-3.75.58-7.49.61-11.25a1.67,1.67,0,0,1,.38-1.13,10.2,10.2,0,0,0,1.82-1.23c.45-.38.93-.81,1.56-.31-.45,5-.9,9.91-1.38,14.85q-1,10-2,20-1,10.31-2.12,20.6A7.61,7.61,0,0,1,182.62,192.86Z"/><path class="cls-35" d="M186.59,134.85c-.28.26-.22.62-.27,1a24.13,24.13,0,0,1-2.65,2.7,95.06,95.06,0,0,0-8,8.9c-.35.45-.68,1.18-1.4.95s-.51-.91-.59-1.45c0-3.24.42-6.46.65-9.69.29-4,.14-7.89.22-11.83a3.64,3.64,0,0,1,.2-1.79l-.06-1.48.34,0a7.23,7.23,0,0,1,3.14,0c1.89.27,3.79.4,5.68.69.54.09,1.12.06,1.53.53s1,.19,1.58.31a3.57,3.57,0,0,1,.42,2.77c-.23,2.31-.29,4.62-.29,6.93A1.9,1.9,0,0,1,186.59,134.85Z"/><path class="cls-36" d="M185.37,123.3c-3.47-.25-6.92-.65-10.35-1.23a63.58,63.58,0,0,1-.89-7.14c-.14-1.17-.75-2.36,0-3.54a66.84,66.84,0,0,0,14-1.53c.66,1.18-.11,2.27-.35,3.32-.68,2.92-.41,5.89-.76,8.82C186.88,123.19,186.33,123.4,185.37,123.3Z"/><path class="cls-7" d="M186.59,134.85c-.14-3.76.31-7.49.36-11.24,3.72-.08,3.73-.08,3.37,3.54-.2,2.07-.44,4.13-.66,6.2-.74-.1-1.12.47-1.63.84S187.29,135.12,186.59,134.85Z"/><path class="cls-31" d="M163.51,121.12c-1.14-.06-2.3.27-3.41-.19A9.55,9.55,0,0,1,163.51,121.12Z"/><path class="cls-37" d="M153.05,76.29c-.48,0-.86,0-.74-.76a4.24,4.24,0,0,1,2-2.92c2.38-.73,4.31-.14,5.22,1.67.28.56.81,1.24.36,1.81s-1.18.29-1.72.14A14.57,14.57,0,0,0,155,76,6.9,6.9,0,0,0,153.05,76.29Z"/><path class="cls-31" d="M174.74,123.59a3.44,3.44,0,0,1,.22.88,137.23,137.23,0,0,1-.47,16.84c-.21,2-.28,4-.41,6.05-.46.67.49,1.55-.33,2.17a68.6,68.6,0,0,0-5.81,9.9A54.84,54.84,0,0,0,162.87,176a42.58,42.58,0,0,0,.84,16.85,3,3,0,0,1,0,.6v0a4.46,4.46,0,0,1-4.27,0c-1.44-1.94-2.07-4.26-2.87-6.46a60.65,60.65,0,0,1-2.77-9.28c-.71-3.81-1.7-7.55-2.36-11.38-.82-4.79-1.22-9.61-1.67-14.42-.28-3.1-.37-6.26-.41-9.4-.06-4.43-.23-8.85-.28-13.27,0-1.64.12-3.28.2-4.92.06-1.22.82-1.65,1.92-1.66q7.91-.08,15.79.52C169.57,123.4,172.15,123.57,174.74,123.59Z"/><path class="cls-6" d="M159.46,193.47h4.27a5.28,5.28,0,0,0,3.34,3.66h-5.78a42.54,42.54,0,0,1-8.12-.61,4.07,4.07,0,0,1-1.13-.38c-.36-.18-.76-.43-.7-.9a1.06,1.06,0,0,1,.81-.82,16.49,16.49,0,0,1,4-.61C157.26,193.69,158.37,193.69,159.46,193.47Z"/><path class="cls-31" d="M158.22,198.23c.3-.62.79-.44,1.31-.46C159.27,198.67,158.66,198.19,158.22,198.23Z"/><path class="cls-38" d="M173.75,149.53c.17-.71-.17-1.5.33-2.17.07.64,0,1.33.84.34A105.28,105.28,0,0,1,184.61,137a5,5,0,0,1,1.71-1.23c-.13,6.12-.56,12.23-1.17,18.32a110.11,110.11,0,0,1-4.33,22.13,77.4,77.4,0,0,1-3.31,8.65,4,4,0,0,1-3.25,2.43c-1.34.21-2.7.31-4.07.39s-1.77-.5-1.58-1.75c.37-2.6.7-5.2,1.09-7.8.85-5.8,1.74-11.59,2.57-17.38C172.81,157,173.26,153.28,173.75,149.53Z"/></svg>