<svg id="Layer_1" data-name="Layer 1" xmlns="http://www.w3.org/2000/svg" viewBox="0 0 257.23 421.57" style="fill:#ffffff"><title>boy_</title><path d="M206.61,22a8.11,8.11,0,1,0-8.9,13.55C219.75,50,234,70.72,239,95.06a114.24,114.24,0,0,0-12.6-8.32c-24-13.6-49.16-15.72-72.83-6.15-33.21,13.44-49.64,6.06-59.1-.66a60.1,60.1,0,0,1-7.85-6.72A8.11,8.11,0,0,0,75.14,84.67c1.44,1.44,2.87,2.77,4.31,4-8.54,11.88-28.51,17.12-40.29,18.8C34.67,98.72,26.05,78.36,33,62.7,48.26,28.39,95.3,16.21,131,16.21a126,126,0,0,1,49,9.87,8.11,8.11,0,0,0,6.36-14.92A142.51,142.51,0,0,0,131,0C66.21,0,30.26,29,18.2,56.11,7.38,80.46,21.56,109.36,26.35,118l-.66,6.79A29.49,29.49,0,0,0,20.18,182a77.72,77.72,0,0,0,31.61,69.5l1.72,1.25a70.72,70.72,0,0,0-41,64.07v96.69a8.1,8.1,0,0,0,8.1,8.1H229.5a8.1,8.1,0,0,0,8.1-8.1V316.78a70.29,70.29,0,0,0-11.66-38.88,8.11,8.11,0,0,0-13.53,8.94,54.07,54.07,0,0,1,9,29.94v43.7H197.14V330.11a8.11,8.11,0,0,0-16.21,0v75.25H69.22V330.11a8.11,8.11,0,0,0-16.21,0v30.37H28.75v-43.7a54.48,54.48,0,0,1,30.89-49,66.27,66.27,0,0,0,7.13,20.78A8.11,8.11,0,0,0,81,280.76a49.28,49.28,0,0,1-4.44-11.3l12.82,9.32a60.56,60.56,0,0,0,71.37,0l12.85-9.33A50.24,50.24,0,0,1,125.08,307a49.63,49.63,0,0,1-31.24-10.92,8.1,8.1,0,0,0-10.11,12.67,66.34,66.34,0,0,0,106.79-41,54.4,54.4,0,0,1,6.93,4,8.11,8.11,0,0,0,9.08-13.43,70.34,70.34,0,0,0-9.88-5.57l1.71-1.25A77.73,77.73,0,0,0,230,182a29.48,29.48,0,0,0-5.52-57.2l-.9-9.4a8.11,8.11,0,0,0-16.14,1.55l6.38,66a61.48,61.48,0,0,1-25,55.42l-37.6,27.31a44.33,44.33,0,0,1-52.3,0L61.32,238.35a61.46,61.46,0,0,1-25-55.42l5.74-59.52c12.42-1.87,38.24-7.81,50.74-25.56,18.25,9.27,40.21,8.52,66.79-2.24,19-7.7,38.67-6,58.32,5a100,100,0,0,1,24.95,19.88,8.1,8.1,0,0,0,14.32-5.2C257.23,76.57,239.25,43.44,206.61,22ZM21.83,164.82A13.27,13.27,0,0,1,24,141.88ZM197.14,376.69h24.25v28.67H197.14ZM53,376.69v28.67H28.76V376.69ZM233.93,154a13.23,13.23,0,0,1-5.61,10.84l-2.21-22.92A13.28,13.28,0,0,1,233.93,154Z"/><path d="M84.29,161.54a8.11,8.11,0,0,0-8.1,8.11v11a8.11,8.11,0,1,0,16.21,0v-11A8.11,8.11,0,0,0,84.29,161.54Z"/><path d="M187.29,137.35a30.32,30.32,0,0,0-42.88,0,8.1,8.1,0,0,0,11.46,11.46,14.11,14.11,0,0,1,19.95,0,8.11,8.11,0,0,0,11.47-11.46Z"/><path d="M105.73,137.35a30.32,30.32,0,0,0-42.88,0,8.11,8.11,0,0,0,11.47,11.46,14.11,14.11,0,0,1,20,0,8.1,8.1,0,0,0,11.46-11.46Z"/><path d="M165.85,161.54a8.11,8.11,0,0,0-8.11,8.11v11a8.11,8.11,0,0,0,16.22,0v-11A8.11,8.11,0,0,0,165.85,161.54Z"/><path d="M148.62,224.14a8.12,8.12,0,0,0-11.47,0,17.1,17.1,0,0,1-24.16,0,8.11,8.11,0,1,0-11.46,11.47,33.34,33.34,0,0,0,47.08,0A8.11,8.11,0,0,0,148.62,224.14Z"/><path d="M131.94,162.46a8.1,8.1,0,0,0-8.1,8.1v19.38H118.2a8.11,8.11,0,0,0,0,16.21h13.74a8.11,8.11,0,0,0,8.11-8.11V170.56A8.11,8.11,0,0,0,131.94,162.46Z"/></svg>