<svg id="Слой_1" data-name="Слой 1" xmlns="http://www.w3.org/2000/svg" xmlns:xlink="http://www.w3.org/1999/xlink" viewBox="0 0 255.66 255.66"><defs><style>.cls-1{fill:none;}.cls-2{fill:#1597d2;}.cls-3{fill:#fff;}.cls-4{clip-path:url(#clip-path);}.cls-5{fill:url(#linear-gradient);}.cls-6{fill:#00d819;}.cls-7{fill:#7c8c9c;}</style><clipPath id="clip-path"><path class="cls-1" d="M241,127.83a113.2,113.2,0,1,1-113.2-113.2A113.2,113.2,0,0,1,241,127.83Z"/></clipPath><linearGradient id="linear-gradient" x1="127.83" y1="241.03" x2="127.83" y2="14.63" gradientUnits="userSpaceOnUse"><stop offset="0.13" stop-color="#00b8ff"/><stop offset="0.28" stop-color="#33c6ff"/><stop offset="0.47" stop-color="#6cd6ff"/><stop offset="0.64" stop-color="#99e3ff"/><stop offset="0.79" stop-color="#b9ecff"/><stop offset="0.91" stop-color="#cdf1ff"/><stop offset="1" stop-color="#d4f3ff"/></linearGradient></defs><title>brain</title><path class="cls-2" d="M255.66,127.83A127.83,127.83,0,1,1,127.83,0,127.83,127.83,0,0,1,255.66,127.83Z"/><path class="cls-3" d="M249.81,127.83a122,122,0,1,1-122-122A122,122,0,0,1,249.81,127.83Z"/><path class="cls-3" d="M242.79,127.83a115,115,0,1,1-115-115A115,115,0,0,1,242.79,127.83Z"/><g class="cls-4"><path class="cls-5" d="M241,127.83a113.2,113.2,0,1,1-113.2-113.2A113.2,113.2,0,0,1,241,127.83Z"/></g><path class="cls-6" d="M182.28,64.36H175.8V57.88a1,1,0,0,0-1-1H171a1,1,0,0,0-1,1v6.48h-6.49a1,1,0,0,0-1,1v3.76a1,1,0,0,0,1,1H170v6.48a1,1,0,0,0,1,1h3.76a1,1,0,0,0,1-1V70.19h6.48a1,1,0,0,0,1-1V65.4A1,1,0,0,0,182.28,64.36Z"/><path class="cls-6" d="M47.75,177H44.19v-3.56a.57.57,0,0,0-.57-.57H41.55a.57.57,0,0,0-.57.57V177H37.42a.57.57,0,0,0-.57.57v2.06a.57.57,0,0,0,.57.57H41v3.56a.57.57,0,0,0,.57.57h2.07a.57.57,0,0,0,.57-.57v-3.56h3.56a.57.57,0,0,0,.57-.57v-2.06A.57.57,0,0,0,47.75,177Z"/><path class="cls-6" d="M52.21,151h-4.8v-4.8a.76.76,0,0,0-.76-.76H43.87a.76.76,0,0,0-.77.76V151H38.3a.77.77,0,0,0-.76.77v2.78a.76.76,0,0,0,.76.76h4.8v4.8a.76.76,0,0,0,.77.77h2.78a.76.76,0,0,0,.76-.77v-4.8h4.8a.77.77,0,0,0,.77-.76v-2.78A.78.78,0,0,0,52.21,151Z"/><path class="cls-6" d="M194,48.84h-3.37V45.47a.54.54,0,0,0-.53-.54h-2a.54.54,0,0,0-.53.54v3.37h-3.37a.54.54,0,0,0-.54.54v1.95a.54.54,0,0,0,.54.54h3.37v3.36a.54.54,0,0,0,.53.54h2a.54.54,0,0,0,.53-.54V51.87H194a.54.54,0,0,0,.54-.54V49.38A.54.54,0,0,0,194,48.84Z"/><path class="cls-6" d="M146.82,44.43H142v-4.8a.77.77,0,0,0-.76-.77h-2.78a.77.77,0,0,0-.77.77v4.8h-4.8a.76.76,0,0,0-.76.77V48a.76.76,0,0,0,.76.76h4.8v4.8a.77.77,0,0,0,.77.77h2.78a.77.77,0,0,0,.76-.77v-4.8h4.8a.76.76,0,0,0,.77-.76V45.2A.76.76,0,0,0,146.82,44.43Z"/><path class="cls-6" d="M182.94,131.9a.44.44,0,0,0-.15-.05,13.28,13.28,0,0,0,.51-6.39,12.52,12.52,0,0,0-2.33-5.65,12.48,12.48,0,0,0,6.2-8.56,18.75,18.75,0,0,0-5.94-17.87,20.61,20.61,0,0,0-18-5.21A13.89,13.89,0,0,0,160,75.51a20,20,0,0,0-12.27-6.11,18,18,0,0,0-11.39,1.81,11.22,11.22,0,0,0-5.83,9.44s0,0,0,0v42.24h0v48.39a.53.53,0,0,0,0,.35V182h0c-.18,3.09,2.11,7.72,4.74,9.57a19.62,19.62,0,0,0,11.34,3.21,28.82,28.82,0,0,0,7.51-1c5.36-1.44,10.63-5.87,14.47-12.15A17.89,17.89,0,0,0,171.29,170c0-.25-.08-.5-.13-.75a9.91,9.91,0,0,0,2.57.33c4.36,0,8.45-2.57,9.82-3.53a20.9,20.9,0,0,0-.61-34.17Z"/><path class="cls-3" d="M119.29,174.86V164.55a.56.56,0,0,0,0-.36V115.8h0V73.53a11.18,11.18,0,0,0-5.84-9.44,18,18,0,0,0-11.39-1.81,19.94,19.94,0,0,0-12.26,6.1A13.87,13.87,0,0,0,86.53,81a20.6,20.6,0,0,0-18,5.22,18.78,18.78,0,0,0-5.94,17.86,12.58,12.58,0,0,0,6.2,8.57,12.59,12.59,0,0,0-2.33,5.64,13.4,13.4,0,0,0,.51,6.39.59.59,0,0,0-.14.06A20.91,20.91,0,0,0,66.22,159c1.37,1,5.47,3.52,9.82,3.52a9.85,9.85,0,0,0,2.57-.33c0,.25-.09.5-.13.75a17.83,17.83,0,0,0,2.76,11.57c3.84,6.28,9.11,10.71,14.46,12.16a29.28,29.28,0,0,0,7.51,1,19.68,19.68,0,0,0,11.35-3.21c2.63-1.85,4.92-6.48,4.73-9.56Z"/><path class="cls-7" d="M123,168.47a.69.69,0,0,0,0-.35V119.73h0V77.49s0,0,0,0A11.22,11.22,0,0,0,117.12,68a18.05,18.05,0,0,0-11.4-1.81,20,20,0,0,0-12.26,6.11A13.89,13.89,0,0,0,90.19,85a20.63,20.63,0,0,0-18,5.21,18.8,18.8,0,0,0-5.94,17.87,12.53,12.53,0,0,0,6.21,8.56,12.64,12.64,0,0,0-2.34,5.65,13.4,13.4,0,0,0,.51,6.39.34.34,0,0,0-.14,0,20.91,20.91,0,0,0-.62,34.17c1.37,1,5.47,3.53,9.82,3.53a9.8,9.8,0,0,0,2.57-.33c0,.25-.09.5-.12.75a17.77,17.77,0,0,0,2.75,11.57c3.84,6.28,9.11,10.71,14.46,12.15a28.89,28.89,0,0,0,7.52,1,19.64,19.64,0,0,0,11.34-3.21c2.63-1.85,4.92-6.48,4.74-9.57h0Zm-5.49,18.83c-4.36,3.08-11,3.82-17.77,2-5-1.36-10-5.58-13.7-11.58A16.54,16.54,0,0,1,83.43,167a10.94,10.94,0,0,1,6.13-8.58.64.64,0,0,0,.28-.26,10.59,10.59,0,0,0,7,2.54,11.4,11.4,0,0,0,6.34-1.9.65.65,0,0,0,.17-.9.65.65,0,0,0-.9-.17,9.88,9.88,0,0,1-12.22-15.46.64.64,0,0,0-.87-1,11.41,11.41,0,0,0-3.47,10.12,11.28,11.28,0,0,0,3,5.85,12,12,0,0,0-6.25,7.3h0c-4.85,1.8-10.41-1.68-12-2.79a19.6,19.6,0,0,1,.5-32,.25.25,0,0,1,0,.07A10,10,0,0,0,77,135.09a8.3,8.3,0,0,0,2.56.4,8.1,8.1,0,0,0,5.09-1.76.64.64,0,0,0,.09-.91.65.65,0,0,0-.91-.09,7,7,0,0,1-6.43,1.13,8.77,8.77,0,0,1-5-4.51,11.68,11.68,0,0,1-.91-6.89,10.58,10.58,0,0,1,3.66-6.68,7,7,0,0,1,7.11-1,.65.65,0,0,0,.55-1.18,8.32,8.32,0,0,0-8.46,1.2,8.2,8.2,0,0,0-.93.84,11.15,11.15,0,0,1-5.81-7.83,17.47,17.47,0,0,1,5.55-16.63A19.21,19.21,0,0,1,90.7,86.42a7.58,7.58,0,0,0-.52,8.27.63.63,0,0,0,.56.32.54.54,0,0,0,.32-.09.63.63,0,0,0,.23-.88,6.13,6.13,0,0,1,8.6-8.25.65.65,0,0,0,.89-.2.64.64,0,0,0-.19-.89,7.58,7.58,0,0,0-8.88.64l-.11,0a.86.86,0,0,0,0-.22,12.45,12.45,0,0,1,2.85-11.93,18.66,18.66,0,0,1,11.47-5.68,16.69,16.69,0,0,1,10.57,1.65,9.91,9.91,0,0,1,5.18,8.65s0,0,0,.06V96a14.38,14.38,0,0,1-9-.57,10.25,10.25,0,0,1-6-6.54,8.07,8.07,0,0,1,2.39-8.18.65.65,0,0,0-.83-1,9.29,9.29,0,0,0-2.81,9.52,11.58,11.58,0,0,0,6.7,7.39,14.5,14.5,0,0,0,5.73,1.13,17.15,17.15,0,0,0,3.73-.43V119.6a9.61,9.61,0,0,1-9.08,5.55,8.92,8.92,0,0,1-7.7-6.75,11.34,11.34,0,0,0,3-4.7,11.55,11.55,0,0,0-3-11.77.65.65,0,0,0-.89.94,10.05,10.05,0,1,1-15.38,12.71.65.65,0,0,0-.89-.2.66.66,0,0,0-.2.9,11.59,11.59,0,0,0,9.64,5.24,12.22,12.22,0,0,0,1.35-.08,11.39,11.39,0,0,0,5.25-2.13,10.15,10.15,0,0,0,8.7,7.14l.69,0a11.21,11.21,0,0,0,8.49-4.34V166.5a10.78,10.78,0,0,0-18.32,9.26.64.64,0,0,0,.63.55h.11a.66.66,0,0,0,.54-.74,9.49,9.49,0,0,1,17-7.09v10.32a0,0,0,0,0,0,0v0C121.82,181.21,119.92,185.58,117.47,187.3Z"/><path class="cls-7" d="M107.91,148a9.2,9.2,0,0,0,7.37-14.79.64.64,0,0,0-.91-.12.65.65,0,0,0-.12.91,7.9,7.9,0,1,1-13.78,7.28.64.64,0,0,0-.81-.41.65.65,0,0,0-.42.82,9.43,9.43,0,0,0,7.88,6.27A7.09,7.09,0,0,0,107.91,148Z"/><path class="cls-3" d="M179.74,128.7a.44.44,0,0,0-.15,0,13.28,13.28,0,0,0,.51-6.39,12.52,12.52,0,0,0-2.33-5.65,12.48,12.48,0,0,0,6.2-8.56A18.75,18.75,0,0,0,178,90.18a20.61,20.61,0,0,0-18-5.21,13.89,13.89,0,0,0-3.27-12.66,20,20,0,0,0-12.27-6.11A18,18,0,0,0,133.12,68a11.22,11.22,0,0,0-5.83,9.44s0,0,0,0v42.24h0v48.39a.6.6,0,0,0,0,.35v10.32h0c-.18,3.09,2.11,7.72,4.74,9.57a19.62,19.62,0,0,0,11.34,3.21,28.82,28.82,0,0,0,7.51-1c5.36-1.44,10.63-5.87,14.47-12.15a17.89,17.89,0,0,0,2.75-11.57c0-.25-.08-.5-.13-.75a9.91,9.91,0,0,0,2.57.33c4.36,0,8.45-2.57,9.82-3.53a20.9,20.9,0,0,0-.61-34.17Zm-.13,33.11c-1.59,1.11-7.16,4.59-12,2.79h0a12,12,0,0,0-6.25-7.3,11.28,11.28,0,0,0,3-5.85,11.44,11.44,0,0,0-3.47-10.12.65.65,0,1,0-.88,1,9.88,9.88,0,0,1-12.21,15.46.65.65,0,0,0-.73,1.07,11.34,11.34,0,0,0,6.33,1.9,10.65,10.65,0,0,0,7-2.54.55.55,0,0,0,.28.26,11,11,0,0,1,6.13,8.58,16.55,16.55,0,0,1-2.58,10.71c-3.67,6-8.66,10.22-13.69,11.58-6.77,1.83-13.41,1.09-17.78-2-2.44-1.72-4.35-6.09-4.19-8.47V168.47a9.5,9.5,0,0,1,17.05,7.09.66.66,0,0,0,.54.74h.1a.65.65,0,0,0,.64-.55,10.79,10.79,0,0,0-18.33-9.26V122.13a11.24,11.24,0,0,0,8.49,4.34l.7,0a10.18,10.18,0,0,0,8.7-7.14,11.35,11.35,0,0,0,5.24,2.13,12.22,12.22,0,0,0,1.35.08,11.59,11.59,0,0,0,9.65-5.24.65.65,0,0,0-1.1-.7,10.05,10.05,0,1,1-15.38-12.71.64.64,0,0,0,0-.91.65.65,0,0,0-.92,0,11.56,11.56,0,0,0-3,11.77,11.34,11.34,0,0,0,3,4.7,8.92,8.92,0,0,1-7.71,6.75,9.63,9.63,0,0,1-9.08-5.55V97.34a17.24,17.24,0,0,0,3.74.43A14.54,14.54,0,0,0,138,96.64a11.58,11.58,0,0,0,6.7-7.39,9.29,9.29,0,0,0-2.81-9.52.66.66,0,0,0-.92.09.65.65,0,0,0,.09.91,8.1,8.1,0,0,1,2.39,8.18,10.27,10.27,0,0,1-6,6.54,14.41,14.41,0,0,1-9,.57V77.85a.13.13,0,0,0,0-.06,9.94,9.94,0,0,1,5.19-8.65,16.67,16.67,0,0,1,10.56-1.65,18.67,18.67,0,0,1,11.48,5.68,12.45,12.45,0,0,1,2.85,11.93.89.89,0,0,0,0,.22l-.1,0a7.59,7.59,0,0,0-8.88-.64.64.64,0,0,0-.2.89.66.66,0,0,0,.9.2A6.12,6.12,0,0,1,158.94,94a.64.64,0,0,0,.23.88.57.57,0,0,0,.33.09.64.64,0,0,0,.56-.32,7.62,7.62,0,0,0-.52-8.27,19.23,19.23,0,0,1,17.62,4.72,17.49,17.49,0,0,1,5.55,16.63,11.18,11.18,0,0,1-5.81,7.83,9.16,9.16,0,0,0-.93-.84,8.34,8.34,0,0,0-8.47-1.2.65.65,0,0,0,.56,1.18,7,7,0,0,1,7.11,1,10.57,10.57,0,0,1,3.65,6.68,11.61,11.61,0,0,1-.91,6.89,8.75,8.75,0,0,1-5,4.51,7,7,0,0,1-6.43-1.13.65.65,0,0,0-.83,1,8.07,8.07,0,0,0,5.1,1.76,8.3,8.3,0,0,0,2.56-.4,10,10,0,0,0,5.79-5.17l0-.07a19.6,19.6,0,0,1,.5,32Z"/><path class="cls-3" d="M150.58,140.9a.65.65,0,0,0-.82.41A7.9,7.9,0,1,1,136,134a.64.64,0,0,0-.12-.91.63.63,0,0,0-.9.12A9.19,9.19,0,0,0,142.33,148a6.79,6.79,0,0,0,.78,0,9.43,9.43,0,0,0,7.88-6.27A.65.65,0,0,0,150.58,140.9Z"/><path class="cls-6" d="M218.63,83.12H209.3V73.79a1.49,1.49,0,0,0-1.49-1.49h-5.4a1.49,1.49,0,0,0-1.49,1.49v9.33H191.6a1.49,1.49,0,0,0-1.49,1.48V90a1.49,1.49,0,0,0,1.49,1.48h9.32v9.33a1.49,1.49,0,0,0,1.49,1.49h5.4a1.49,1.49,0,0,0,1.49-1.49V91.49h9.33A1.48,1.48,0,0,0,220.11,90V84.6A1.48,1.48,0,0,0,218.63,83.12Z"/><path class="cls-6" d="M74.75,186.1H68.27v-6.49a1,1,0,0,0-1-1H63.47a1,1,0,0,0-1,1v6.49H56a1,1,0,0,0-1,1v3.76a1,1,0,0,0,1,1h6.48v6.49a1,1,0,0,0,1,1h3.76a1,1,0,0,0,1-1v-6.49h6.48a1,1,0,0,0,1-1v-3.76A1,1,0,0,0,74.75,186.1Z"/></svg>