<svg id="Слой_1" data-name="Слой 1" xmlns="http://www.w3.org/2000/svg" xmlns:xlink="http://www.w3.org/1999/xlink" viewBox="0 0 255.66 255.66"><defs><style>.cls-1{fill:none;}.cls-2{fill:#1597d2;}.cls-3{fill:#fff;}.cls-4{clip-path:url(#clip-path);}.cls-5{fill:url(#linear-gradient);}.cls-6{fill:url(#Безымянный_градиент_14);}.cls-7{fill:url(#Безымянный_градиент_14-2);}.cls-8{fill:url(#Безымянный_градиент_3);}.cls-9{fill:url(#linear-gradient-2);}.cls-10{fill:url(#Безымянный_градиент_14-3);}.cls-11{fill:url(#Безымянный_градиент_14-4);}.cls-12{fill:url(#Безымянный_градиент_9);}.cls-13{fill:url(#Безымянный_градиент_10);}.cls-14{fill:url(#Безымянный_градиент_14-5);}.cls-15{fill:url(#Безымянный_градиент_14-6);}.cls-16{fill:url(#Безымянный_градиент_14-7);}.cls-17{fill:url(#Безымянный_градиент_14-8);}</style><clipPath id="clip-path"><path id="SVGID" class="cls-1" d="M241,127.83a113.2,113.2,0,1,1-113.2-113.2A113.2,113.2,0,0,1,241,127.83Z"/></clipPath><linearGradient id="linear-gradient" x1="127.83" y1="241.03" x2="127.83" y2="14.63" gradientUnits="userSpaceOnUse"><stop offset="0.13" stop-color="#00b8ff"/><stop offset="0.28" stop-color="#33c6ff"/><stop offset="0.47" stop-color="#6cd6ff"/><stop offset="0.64" stop-color="#99e3ff"/><stop offset="0.79" stop-color="#b9ecff"/><stop offset="0.91" stop-color="#cdf1ff"/><stop offset="1" stop-color="#d4f3ff"/></linearGradient><linearGradient id="Безымянный_градиент_14" x1="123.87" y1="536.4" x2="123.87" y2="331.42" gradientTransform="translate(-4.31 -320.09) scale(1.07)" gradientUnits="userSpaceOnUse"><stop offset="0" stop-color="#fff"/><stop offset="1" stop-color="#e8efee"/></linearGradient><linearGradient id="Безымянный_градиент_14-2" x1="123.87" y1="307.2" x2="123.87" y2="505.54" xlink:href="#Безымянный_градиент_14"/><linearGradient id="Безымянный_градиент_3" x1="85.56" y1="381.6" x2="158.47" y2="454.51" gradientTransform="translate(-4.31 -320.09) scale(1.07)" gradientUnits="userSpaceOnUse"><stop offset="0" stop-color="#1aceb8"/><stop offset="1" stop-color="#0bbfba"/></linearGradient><linearGradient id="linear-gradient-2" x1="-880.6" y1="-578.4" x2="-461.76" y2="-578.4" gradientTransform="translate(369 335.67) scale(0.36 0.36)" xlink:href="#linear-gradient"/><linearGradient id="Безымянный_градиент_14-3" x1="123.88" y1="353.09" x2="123.88" y2="424.06" xlink:href="#Безымянный_градиент_14"/><linearGradient id="Безымянный_градиент_14-4" x1="117.04" y1="427.98" x2="93.37" y2="451.66" xlink:href="#Безымянный_градиент_14"/><linearGradient id="Безымянный_градиент_9" x1="122.73" y1="420.13" x2="180.65" y2="406.35" gradientTransform="translate(-4.31 -320.09) scale(1.07)" gradientUnits="userSpaceOnUse"><stop offset="0" stop-color="#d63305"/><stop offset="0.37" stop-color="#cf3004"/><stop offset="0.9" stop-color="#bc2602"/><stop offset="1" stop-color="#b72401"/></linearGradient><linearGradient id="Безымянный_градиент_10" x1="123.87" y1="433.5" x2="123.87" y2="412.92" gradientTransform="translate(-4.31 -320.09) scale(1.07)" gradientUnits="userSpaceOnUse"><stop offset="0" stop-color="#97aaaa"/><stop offset="1" stop-color="#e8efee"/></linearGradient><linearGradient id="Безымянный_градиент_14-5" x1="123.87" y1="350.66" x2="123.87" y2="368.13" xlink:href="#Безымянный_градиент_14"/><linearGradient id="Безымянный_градиент_14-6" x1="123.87" y1="468.24" x2="123.87" y2="485.71" xlink:href="#Безымянный_градиент_14"/><linearGradient id="Безымянный_градиент_14-7" x1="192.6" y1="536.44" x2="175.12" y2="331.46" xlink:href="#Безымянный_градиент_14"/><linearGradient id="Безымянный_градиент_14-8" x1="75.02" y1="536.44" x2="57.54" y2="331.46" xlink:href="#Безымянный_градиент_14"/></defs><title>dozvoleniy</title><path class="cls-2" d="M255.66,127.83A127.83,127.83,0,1,1,127.83,0,127.83,127.83,0,0,1,255.66,127.83Z"/><path class="cls-3" d="M249.81,127.83a122,122,0,1,1-122-122A122,122,0,0,1,249.81,127.83Z"/><path class="cls-3" d="M242.79,127.83a115,115,0,1,1-115-115A115,115,0,0,1,242.79,127.83Z"/><g class="cls-4"><path class="cls-5" d="M241,127.83a113.2,113.2,0,1,1-113.2-113.2A113.2,113.2,0,0,1,241,127.83Z"/></g><circle class="cls-6" cx="127.83" cy="127.83" r="86.24"/><circle class="cls-7" cx="127.83" cy="127.83" r="83.44"/><circle class="cls-8" cx="127.83" cy="127.83" r="75.25"/><circle class="cls-9" cx="127.83" cy="127.83" r="75.25"/><path class="cls-10" d="M128.37,127.83h-1.08a3.66,3.66,0,0,1-3.67-3.66V79.61A3.66,3.66,0,0,1,127.29,76h1.08A3.66,3.66,0,0,1,132,79.61v44.56A3.66,3.66,0,0,1,128.37,127.83Z"/><path class="cls-11" d="M128.37,127.83l.77.77a3.66,3.66,0,0,1,0,5.18l-25.72,25.73a3.66,3.66,0,0,1-5.18,0l-.77-.77a3.66,3.66,0,0,1,0-5.18l25.72-25.73A3.66,3.66,0,0,1,128.37,127.83Z"/><path class="cls-12" d="M179,115.39h0a1.56,1.56,0,0,1-1.14,1.88l-49.21,12.12a1.56,1.56,0,0,1-1.89-1.14h0a1.57,1.57,0,0,1,1.14-1.89l49.21-12.11A1.56,1.56,0,0,1,179,115.39Z"/><circle class="cls-13" cx="127.83" cy="127.83" r="6.95"/><path class="cls-14" d="M128.1,71.51h-.54a3.94,3.94,0,0,1-3.94-3.94v-4.9a4,4,0,0,1,3.94-3.94h.54A4,4,0,0,1,132,62.67v4.9A3.94,3.94,0,0,1,128.1,71.51Z"/><path class="cls-15" d="M128.1,196.93h-.54a3.94,3.94,0,0,1-3.94-3.94v-4.9a4,4,0,0,1,3.94-3.94h.54a4,4,0,0,1,3.94,3.94V193A3.94,3.94,0,0,1,128.1,196.93Z"/><path class="cls-16" d="M184.15,128.1v-.54a3.94,3.94,0,0,1,3.94-3.93H193a3.93,3.93,0,0,1,3.94,3.93v.54A3.93,3.93,0,0,1,193,132h-4.9A4,4,0,0,1,184.15,128.1Z"/><path class="cls-17" d="M58.73,128.1v-.54a3.94,3.94,0,0,1,3.94-3.93h4.9a3.93,3.93,0,0,1,3.94,3.93v.54A3.93,3.93,0,0,1,67.57,132h-4.9A4,4,0,0,1,58.73,128.1Z"/></svg>