<svg id="Capa_1" data-name="Capa 1" xmlns="http://www.w3.org/2000/svg" viewBox="0 0 52.12 45.22"><defs><style>.cls-1{fill:#706f6f;}</style></defs><title>несколько</title><path class="cls-1" d="M49.13,44.43H16.92a3,3,0,0,1,0-6H49.13a3,3,0,0,1,0,6Z"/><path class="cls-1" d="M49.13,25.6H16.92a3,3,0,0,1,0-6H49.13a3,3,0,0,1,0,6Z"/><path class="cls-1" d="M49.13,6.77H16.92a3,3,0,0,1,0-6H49.13a3,3,0,1,1,0,6Z"/><circle class="cls-1" cx="4.03" cy="4" r="4.03"/><circle class="cls-1" cx="4.03" cy="22.6" r="4.03"/><circle class="cls-1" cx="4.03" cy="41.2" r="4.03"/></svg>