<?xml version="1.0" encoding="utf-8"?>
<!-- Generator: Adobe Illustrator 22.0.1, SVG Export Plug-In . SVG Version: 6.00 Build 0)  -->
<svg version="1.1" id="Слой_1" xmlns="http://www.w3.org/2000/svg" xmlns:xlink="http://www.w3.org/1999/xlink" x="0px" y="0px"
	 viewBox="0 0 255.7 255.7" style="enable-background:new 0 0 255.7 255.7;" xml:space="preserve">
<style type="text/css">
	.st0{fill:#1597D2;}
	.st1{fill:#FFFFFF;}
	.st2{clip-path:url(#SVGID_2_);}
	.st3{fill:url(#SVGID_3_);}
	.st4{fill:#F4F4F4;}
	.st5{fill:#DCDBDE;}
	.st6{fill:url(#SVGID_4_);}
</style>
<title>Die myako i efektivno</title>
<path class="st0" d="M255.7,127.8c0,70.6-57.2,127.8-127.8,127.8S0,198.4,0,127.8C0,57.2,57.2,0,127.8,0c0,0,0,0,0,0
	C198.4,0,255.7,57.2,255.7,127.8z"/>
<path class="st1" d="M249.8,127.8c0,67.4-54.6,122-122,122s-122-54.6-122-122s54.6-122,122-122S249.8,60.5,249.8,127.8z"/>
<path class="st1" d="M242.8,127.8c0,63.5-51.5,115-115,115s-115-51.5-115-115s51.5-115,115-115S242.8,64.3,242.8,127.8z"/>
<g>
	<defs>
		<path id="SVGID_1_" d="M241,127.8c0,62.5-50.7,113.2-113.2,113.2S14.6,190.3,14.6,127.8S65.3,14.6,127.8,14.6S241,65.3,241,127.8
			L241,127.8z"/>
	</defs>
	<clipPath id="SVGID_2_">
		<use xlink:href="#SVGID_1_"  style="overflow:visible;"/>
	</clipPath>
	<g class="st2">
		
			<linearGradient id="SVGID_3_" gradientUnits="userSpaceOnUse" x1="127.8" y1="14.56" x2="127.8" y2="240.96" gradientTransform="matrix(1 0 0 -1 0 255.59)">
			<stop  offset="0.13" style="stop-color:#00B8FF"/>
			<stop  offset="0.28" style="stop-color:#33C6FF"/>
			<stop  offset="0.47" style="stop-color:#6CD6FF"/>
			<stop  offset="0.64" style="stop-color:#99E3FF"/>
			<stop  offset="0.79" style="stop-color:#B9ECFF"/>
			<stop  offset="0.91" style="stop-color:#CDF1FF"/>
			<stop  offset="1" style="stop-color:#D4F3FF"/>
		</linearGradient>
		<path class="st3" d="M241,127.8c0,62.5-50.7,113.2-113.2,113.2S14.6,190.3,14.6,127.8S65.3,14.6,127.8,14.6S241,65.3,241,127.8
			L241,127.8z"/>
	</g>
</g>
<path class="st4" d="M191.5,47.8l-19.8,3.4c-5.1,0.9-10,3-14.1,6.1l-41.5,31.4v21.8l-12.4-9.3l-32,32.3c-3.1,3.1-4.8,7.2-4.8,11.6
	v41.1h41c4.4,0,8.6-1.7,11.7-4.9l13.1-13.2l-11.2-4.7l19.6-3.7l53.2-68c3.1-4,5.2-8.6,6.2-13.5l3.6-17.3c1.2-5.9-2.6-11.6-8.5-12.8
	C194.2,47.6,192.8,47.6,191.5,47.8z"/>
<path class="st5" d="M191.5,47.8l-9.9,1.7c3.7,2.4,5.5,6.9,4.6,11.2l-3.5,17.3c-1,4.9-3.1,9.6-6.2,13.5l-53.2,68l-19.6,3.7l11.2,4.7
	l-13.1,13.2c-3.1,3.1-7.3,4.9-11.7,4.9h17.8c4.4,0,8.6-1.7,11.7-4.9l13.1-13.2l-11.2-4.7l19.6-3.7l53.2-68c3.1-4,5.2-8.6,6.2-13.5
	l3.6-17.3c1.2-5.9-2.6-11.6-8.5-12.8C194.2,47.6,192.8,47.6,191.5,47.8z"/>
<linearGradient id="SVGID_4_" gradientUnits="userSpaceOnUse" x1="46.5025" y1="113.7532" x2="179.4617" y2="113.7532" gradientTransform="matrix(1 0 0 -1 0 255.59)">
	<stop  offset="0.13" style="stop-color:#00B8FF"/>
	<stop  offset="0.28" style="stop-color:#33C6FF"/>
	<stop  offset="0.47" style="stop-color:#6CD6FF"/>
	<stop  offset="0.64" style="stop-color:#99E3FF"/>
	<stop  offset="0.79" style="stop-color:#B9ECFF"/>
	<stop  offset="0.91" style="stop-color:#CDF1FF"/>
	<stop  offset="1" style="stop-color:#D4F3FF"/>
</linearGradient>
<path class="st6" d="M178.7,73.9C178.7,73.9,178.7,73.9,178.7,73.9c-1-1.1-2.7-1.1-3.7-0.1c0,0,0,0,0,0L142.8,106V85.5
	c0-1.4-1.1-2.6-2.6-2.6s-2.6,1.1-2.6,2.6v25.6l-15.2,15.2L95,153.6v-20.3c0-1.4-1.1-2.6-2.6-2.6s-2.6,1.1-2.6,2.6v25.4l-31.9,31.8
	c-3.6,3.6-6.3,8-7.9,12.9l-1.2,3.8c0.7,0.2,1.4,0.6,2,1.1c0.4,0.2,0.8,0.5,1.2,0.9c0.4,0.5,0.8,1,1.2,1.4l1.8-5.6
	c1.3-4.1,3.6-7.8,6.6-10.8l63.7-63.5H148c1.4,0,2.6-1.2,2.6-2.6c0-1.4-1.2-2.6-2.6-2.6h-17.5l48.2-48
	C179.7,76.6,179.7,74.9,178.7,73.9z"/>
</svg>
