<svg id="Layer_1" data-name="Layer 1" xmlns="http://www.w3.org/2000/svg" viewBox="0 0 512 469.16" style="fill:#ffffff"><title>family</title><path d="M157.9,164.49a7.5,7.5,0,0,0-10.55,1.1,14,14,0,0,1-22.63,0A7.5,7.5,0,0,0,113.07,175,28.91,28.91,0,0,0,159,175,7.49,7.49,0,0,0,157.9,164.49Z"/><path d="M101.76,120a7.5,7.5,0,0,0-7.5,7.5V136a7.5,7.5,0,0,0,15,0v-8.56A7.5,7.5,0,0,0,101.76,120Z"/><path d="M170.31,120a7.5,7.5,0,0,0-7.5,7.5V136a7.5,7.5,0,1,0,15,0v-8.56A7.5,7.5,0,0,0,170.31,120Z"/><path d="M406.4,207.33a7.5,7.5,0,0,0-10.55,1.1,14,14,0,0,1-22.63,0,7.5,7.5,0,0,0-11.65,9.45,28.92,28.92,0,0,0,45.93,0A7.51,7.51,0,0,0,406.4,207.33Z"/><path d="M350.26,162.81a7.5,7.5,0,0,0-7.5,7.5v8.57a7.5,7.5,0,0,0,15,0v-8.57A7.5,7.5,0,0,0,350.26,162.81Z"/><path d="M418.81,162.81a7.5,7.5,0,0,0-7.5,7.5v8.57a7.5,7.5,0,1,0,15,0v-8.57A7.5,7.5,0,0,0,418.81,162.81Z"/><path d="M491.13,311.12l-58.76-23.5c-.32-.13-.61-.29-.91-.44,40.58-9.24,59.8-24.68,60.66-25.38a7.51,7.51,0,0,0,2.67-6.86c-.09-.59-8.5-60.14-8.5-118.9a101.76,101.76,0,1,0-203.51,0c0,15.37-.7,34.17-1.84,52l-16.37,8.18-48.06-24c-.14-.07-.28-.12-.43-.18a83.42,83.42,0,0,0,4.33-21,24.62,24.62,0,0,0,8.81-42.2V58.91a41.74,41.74,0,0,0-18.38-34.43A33,33,0,0,0,178.88,0H110.33A67.56,67.56,0,0,0,42.84,67.48v41.33A24.62,24.62,0,0,0,51.65,151a84.58,84.58,0,0,0,34,61.54v20.73l-62,18.61A33,33,0,0,0,0,283.7v83.7a7.5,7.5,0,0,0,7.5,7.5H8.57v86.76a7.5,7.5,0,0,0,15,0V374.9H51.41v86.76a7.5,7.5,0,0,0,15,0V332.34a33.07,33.07,0,0,0-5.57-18.42L48,294.69A7.5,7.5,0,1,0,35.54,303l12.82,19.23a18.15,18.15,0,0,1,3.06,10.1V359.9H15V283.7a18.08,18.08,0,0,1,13-17.44l25.74-7.73a84.65,84.65,0,0,0,122.42,54.85A24.61,24.61,0,0,0,196,323.48h1.07v1.07a67.52,67.52,0,0,0,34.27,58.71V395.5a1.06,1.06,0,0,1-.73,1l-28,9.33a33.15,33.15,0,0,0-22.7,31.5v24.32a7.5,7.5,0,0,0,15,0V437.34a18.17,18.17,0,0,1,12.45-17.27l8.22-2.75a58.91,58.91,0,0,0,97.89,0l8.23,2.74a18.17,18.17,0,0,1,12.45,17.27v24.32a7.5,7.5,0,0,0,15,0V437.34a33.16,33.16,0,0,0-22.71-31.5l-28-9.33a1.06,1.06,0,0,1-.74-1V383.26a67.73,67.73,0,0,0,31.76-40.48A76,76,0,0,0,456.92,313.6l28.63,11.45A18.12,18.12,0,0,1,497,342V377H469.15V367.4a7.5,7.5,0,0,0-15,0v94.26a7.5,7.5,0,0,0,15,0V392h19.28v69.62a7.5,7.5,0,0,0,15,0V392h1.07a7.51,7.51,0,0,0,7.5-7.5V342A33.06,33.06,0,0,0,491.13,311.12ZM297.78,136a86.76,86.76,0,0,1,173.51,0c0,50.37,6.07,101.28,8,116.48-6.72,4.4-23.93,14.08-53,20.45V261a83,83,0,0,0,11.39-7.73,84.45,84.45,0,0,0,31.46-65.84c0-42.39-30.66-48.48-60.31-54.36-18.86-3.75-38.37-7.62-53.9-20a7.5,7.5,0,0,0-12.19,5.86c0,.2-.33,19.93-28.59,27a7.5,7.5,0,0,0,3.63,14.55c23.66-5.91,33.32-19.19,37.25-29.16,16.27,9.64,34.48,13.26,50.88,16.51,31.69,6.29,48.23,10.91,48.23,39.65a69.49,69.49,0,0,1-25.89,54.18A69.63,69.63,0,0,1,344,244.06a84.81,84.81,0,0,0-20.54-31.65V178.88a7.5,7.5,0,0,0-10.85-6.71l-16.19,8.1C297.32,164.65,297.78,149.8,297.78,136Zm10.7,55v27.15l-27.14-13.57Zm-87.83,0,27.15,13.58-27.15,13.57ZM180,273.14v7.12a24.64,24.64,0,0,0-8.57,18.58A69.63,69.63,0,0,1,68.12,254.21l18.53-5.56a50.33,50.33,0,0,0,94,13.45A84.36,84.36,0,0,0,180,273.14Zm-79.26-34.29V221.48a84.57,84.57,0,0,0,70.69,0v17.38a35.35,35.35,0,0,1-70.69.1ZM136,214.22A69.71,69.71,0,0,1,66.41,144.6a7.5,7.5,0,0,0-7.5-7.5,9.64,9.64,0,0,1,0-19.27H76.05a7.51,7.51,0,0,0,7.12-5.13l6.88-20.65c17.24-.39,70.66-2.81,100.75-17.86a7.5,7.5,0,1,0-6.71-13.41c-32.28,16.14-98.8,16.34-99.47,16.34a7.5,7.5,0,0,0-7.11,5.13l-6.86,20.58H58.91c-.35,0-.71,0-1.06,0V67.48A52.54,52.54,0,0,1,110.33,15h68.55a18.06,18.06,0,0,1,17.89,15.35,7.47,7.47,0,0,0,3.73,5.35,26.8,26.8,0,0,1,13.73,23.21v43.94l-1.07,0h-8.57a7.5,7.5,0,0,0,0,15h8.57a9.64,9.64,0,0,1,0,19.27,7.5,7.5,0,0,0-7.5,7.5A69.7,69.7,0,0,1,136,214.22Zm50.34,24.64V212.55a85,85,0,0,0,19.27-19.93v19.79A84.73,84.73,0,0,0,186.33,241C186.35,240.26,186.38,239.56,186.38,238.86ZM298.55,412.34a43.87,43.87,0,0,1-68,0l4.78-1.59a16,16,0,0,0,11-15.24v-6a67.05,67.05,0,0,0,36.42,0v6a16,16,0,0,0,11,15.24Zm26-103.86a7.5,7.5,0,0,0-7.5,7.5v8.57a52.48,52.48,0,0,1-105,0V316a7.5,7.5,0,0,0-7.5-7.5H196a9.65,9.65,0,0,1-9.64-9.64,9.51,9.51,0,0,1,4.84-8.27,7.67,7.67,0,0,0,1.78-1.46c18.54-.54,78.64-4,118.14-26.6a7.5,7.5,0,1,0-7.45-13c-34.6,19.77-89,23.73-108.74,24.52v-.87a69.65,69.65,0,0,1,11.88-38.85,7.48,7.48,0,0,0,9.68,2.71l48.06-24,48.06,24a7.45,7.45,0,0,0,9.68-2.71,69.65,69.65,0,0,1,11.88,38.85v10.94a7.52,7.52,0,0,0,3.73,6.49,9.52,9.52,0,0,1,4.84,8.27,9.65,9.65,0,0,1-9.64,9.64Zm60,42.85a61.14,61.14,0,0,1-51.25-27.85,24.57,24.57,0,0,0,15.9-43.22v-7.12a84.23,84.23,0,0,0-.48-9,84.52,84.52,0,0,0,62.6,3.55v11a24.52,24.52,0,0,0,15.49,22.88L443,308A61,61,0,0,1,384.54,351.33Z"/><path d="M286.43,335.86A7.51,7.51,0,0,0,275.88,337a13.94,13.94,0,0,1-22.62,0,7.5,7.5,0,1,0-11.65,9.44,28.9,28.9,0,0,0,45.92,0A7.5,7.5,0,0,0,286.43,335.86Z"/><circle cx="239" cy="307.45" r="7.5"/><circle cx="290" cy="307.45" r="7.5"/></svg>