<svg id="Слой_1" data-name="Слой 1" xmlns="http://www.w3.org/2000/svg" viewBox="0 0 256.12 39.55"><title>Лого_легколакс</title><path d="M6.09,22.79a24.77,24.77,0,0,1-.41,5.1,4.26,4.26,0,0,1-1,1.95,3.11,3.11,0,0,1-1.07.68,4.4,4.4,0,0,1-2.2.2,2.26,2.26,0,0,1-.72-.19l-.7-.3v5.54l.37.1a6.17,6.17,0,0,0,1.12.2l1.12.1a10.89,10.89,0,0,0,3.16-.47,7.81,7.81,0,0,0,2.82-1.52,8,8,0,0,0,2.47-3.58,21.27,21.27,0,0,0,.8-6.4v-15h9.39V35.89H27V3.66H6.09Z" style="fill:#1697d2"/><polygon points="33.52 35.89 51.75 35.89 51.75 30.39 39.29 30.39 39.29 21.09 51.37 21.09 51.37 15.6 39.29 15.6 39.29 9.16 51.75 9.16 51.75 3.66 33.52 3.66 33.52 35.89" style="fill:#1697d2"/><polygon points="56.92 35.88 62.7 35.88 62.7 9.16 73.56 9.16 73.56 3.66 56.92 3.66 56.92 35.88" style="fill:#1697d2"/><polygon points="101.8 3.66 94.1 3.66 82.74 15.38 82.74 3.66 76.96 3.66 76.96 35.89 82.74 35.89 82.74 22.68 83.13 22.28 93.89 35.7 94.04 35.89 101.75 35.89 87.12 18.3 101.8 3.66" style="fill:#1697d2"/><path d="M146.75,22.79a26,26,0,0,1-.4,5.1,4.26,4.26,0,0,1-1,1.95,3,3,0,0,1-1.06.68,4.44,4.44,0,0,1-2.21.2,2.4,2.4,0,0,1-.72-.19l-.7-.3v5.54l.37.1a6.79,6.79,0,0,0,1.12.2l1.12.1a10.89,10.89,0,0,0,3.16-.47,7.81,7.81,0,0,0,2.82-1.52,7.92,7.92,0,0,0,2.47-3.58,20.81,20.81,0,0,0,.8-6.4v-15h9.4V35.89h5.77V3.66H146.75Z" style="fill:#1697d2"/><path d="M170.34,35.89h6.26l3.4-7.54h12.7L196,35.89h6.24L186.68,1.14ZM186.47,14l3.84,8.82h-7.82Z" style="fill:#1697d2"/><polygon points="222.03 3.66 210.67 15.38 210.67 3.66 204.89 3.66 204.89 35.89 210.67 35.89 210.67 22.67 211.06 22.28 221.83 35.7 221.98 35.89 229.67 35.89 215.05 18.3 229.72 3.66 222.03 3.66" style="fill:#1697d2"/><path d="M247.31,8.5a10.7,10.7,0,0,1,4.21.85,13.49,13.49,0,0,1,3.76,2.47l.84.77v-7l-.24-.15A15.55,15.55,0,0,0,252,3.71a16.44,16.44,0,0,0-4.61-.61,18.79,18.79,0,0,0-6.27,1A14.43,14.43,0,0,0,236,7.3,15.82,15.82,0,0,0,232.15,13a18.65,18.65,0,0,0-1.28,6.91A17,17,0,0,0,232,26.44,15.72,15.72,0,0,0,236,32a15,15,0,0,0,5.21,3.36,16.95,16.95,0,0,0,10.45.49A16.81,16.81,0,0,0,255.88,34l.24-.15V26.78l-.85.82a13.49,13.49,0,0,1-3.76,2.58,9.43,9.43,0,0,1-4,.87,10.24,10.24,0,0,1-7.9-3.19,11.25,11.25,0,0,1-3-8,11.32,11.32,0,0,1,2.94-8.15A10.08,10.08,0,0,1,247.31,8.5Z" style="fill:#1697d2"/><path d="M136.93,28a18,18,0,0,1-6.12,5.7A17.88,17.88,0,0,1,122,36.12l-1,0L119.17,36l-.87-.2-.82-.22a10.33,10.33,0,0,1-2.14-.71l-.76-.37a13.25,13.25,0,0,1-1.89-1.06c-.27-.23-.5-.41-.74-.59a13,13,0,0,1-1.62-1.39,16.14,16.14,0,0,1-4.68-11.86,14.13,14.13,0,0,1,2-6.57,3.35,3.35,0,0,1,.45-.73,13.85,13.85,0,0,1,21.77-2.83,14.38,14.38,0,0,1,3.86,10.34,15,15,0,0,1-2.27,8.35A16,16,0,0,0,134,25.76a17,17,0,0,0,2.57-4.2,14.48,14.48,0,0,0-4.25-17.35A20.1,20.1,0,0,0,106,5.71a19.3,19.3,0,0,0-5.54,14.07A19.32,19.32,0,0,0,106,33.89a20.11,20.11,0,0,0,28,0,18.74,18.74,0,0,0,5.32-10.81l-.12,0A18.24,18.24,0,0,1,136.93,28Z" style="fill:#1697d2"/><path d="M135.73,25.53a13.26,13.26,0,0,1-4.23,3.91,12.49,12.49,0,0,1-6.34,1.72l-1,0-.5,0-.4-.11a12.21,12.21,0,0,1-1.58-.46c-.54-.27-1.11-.46-1.62-.78s-1-.66-1.46-1.07-.89-.86-1.24-1.35a17.21,17.21,0,0,1-1-1.59,13,13,0,0,1-.64-1.75l-.17-.92-.1-.47,0-.11v-.23a6.6,6.6,0,0,1,.15-2,8,8,0,0,1,.19-.78l.36-.84a2.88,2.88,0,0,1,.45-.78c.18-.24.33-.52.53-.74a7.75,7.75,0,0,1,1.36-1.2c.26-.16.49-.37.75-.5l.84-.36a2.86,2.86,0,0,1,.86-.26l.45-.09.22-.06.12,0h.06a6,6,0,0,1,1.8.12l.36.06.39.16a3.82,3.82,0,0,1,.76.37,5.34,5.34,0,0,1,2.23,2.45,6.62,6.62,0,0,1,.5,1.6v.91c0,.27-.1.42-.12.64A4.23,4.23,0,0,1,123.2,24,3.34,3.34,0,0,1,121,22.57c-.12-.19-.2-.4-.3-.6l-.19-.65,0,0V21a2.8,2.8,0,0,1,0-.4c.06-.16,0-.3.11-.51a2.71,2.71,0,0,1,1.57-1.72l.57-.18a4,4,0,0,1,.6,0,2.12,2.12,0,0,1,1,.33,2.09,2.09,0,0,1,.4,3.29,1.94,1.94,0,0,1-1.41.49,1.78,1.78,0,0,1-1.07-.49,2.21,2.21,0,0,1-.48-.93,2.08,2.08,0,0,0,.34,1.05,2.21,2.21,0,0,0,3,.43,2.7,2.7,0,0,0,1.22-2.16,3.49,3.49,0,0,0-2.89-3.51,4.09,4.09,0,0,0-.89-.08c-.29.05-.61.09-.92.16a4.57,4.57,0,0,0-2.94,2.63,5.48,5.48,0,0,0,4,7.2,6.69,6.69,0,0,0,4.8-.79,7.07,7.07,0,0,0,3.2-4.06,14.21,14.21,0,0,0,.27-1.46V19.06a9.63,9.63,0,0,0-.66-2.57,8.29,8.29,0,0,0-3.49-4.07,6.17,6.17,0,0,0-1.24-.6l-.64-.27-.75-.16a10.25,10.25,0,0,0-2.54-.21c-.36,0-.12,0-.22,0h-.12l-.16,0-.33.06-.66.13a4.84,4.84,0,0,0-1.3.37l-1.25.53a9.6,9.6,0,0,0-1.14.73,10.43,10.43,0,0,0-2,1.81c-.3.34-.51.74-.78,1.11a6.11,6.11,0,0,0-.65,1.17,10.61,10.61,0,0,0-1,5.1A12.37,12.37,0,0,0,116.64,31a19.57,19.57,0,0,0,2,1.33,15.63,15.63,0,0,0,2.16.9,13.94,13.94,0,0,0,2.33.47l.58.08.5,0,1,0a13.92,13.92,0,0,0,7.43-2.63,14.28,14.28,0,0,0,5.8-9.6,13.23,13.23,0,0,0,0-3.12c-.09-.71-.14-1.08-.14-1.08s0,.38,0,1.09a16.09,16.09,0,0,1-.51,3A14.38,14.38,0,0,1,135.73,25.53Z" style="fill:#1697d2"/></svg>