<svg id="Слой_1" data-name="Слой 1" xmlns="http://www.w3.org/2000/svg" xmlns:xlink="http://www.w3.org/1999/xlink" viewBox="0 0 255.66 255.66"><defs><style>.cls-1{fill:none;}.cls-2{fill:#1597d2;}.cls-3{fill:#fff;}.cls-4{clip-path:url(#clip-path);}.cls-5{fill:url(#linear-gradient);}.cls-6{fill:#39d348;}</style><clipPath id="clip-path"><path id="SVGID" class="cls-1" d="M241,127.83a113.2,113.2,0,1,1-113.2-113.2A113.2,113.2,0,0,1,241,127.83Z"/></clipPath><linearGradient id="linear-gradient" x1="127.83" y1="241.03" x2="127.83" y2="14.63" gradientUnits="userSpaceOnUse"><stop offset="0.13" stop-color="#00b8ff"/><stop offset="0.28" stop-color="#33c6ff"/><stop offset="0.47" stop-color="#6cd6ff"/><stop offset="0.64" stop-color="#99e3ff"/><stop offset="0.79" stop-color="#b9ecff"/><stop offset="0.91" stop-color="#cdf1ff"/><stop offset="1" stop-color="#d4f3ff"/></linearGradient></defs><title>ne viklikae</title><path class="cls-2" d="M255.66,127.83A127.83,127.83,0,1,1,127.83,0,127.83,127.83,0,0,1,255.66,127.83Z"/><path class="cls-3" d="M249.81,127.83a122,122,0,1,1-122-122A122,122,0,0,1,249.81,127.83Z"/><path class="cls-3" d="M242.79,127.83a115,115,0,1,1-115-115A115,115,0,0,1,242.79,127.83Z"/><g class="cls-4"><path class="cls-5" d="M241,127.83a113.2,113.2,0,1,1-113.2-113.2A113.2,113.2,0,0,1,241,127.83Z"/></g><path class="cls-3" d="M159.15,169.32c-1.05.25-1.53,0-1.93-.87-.78-1.67-1.58-3.34-2.37-5-2.11-5.73-4.78-11.22-7.31-16.76-.09-1.22-1.26-2.05-1.17-3.33a.77.77,0,0,0-.64-.69c-.15-.55-.31-1.1-.46-1.65a1.73,1.73,0,0,0-.46-1l-1.26-2.67a1.83,1.83,0,0,0-.47-1h0a4.29,4.29,0,0,0-.22-.72c-.48-.93-.82-2.47-1.5-2.65-1.3-.33-1.07,1.41-1.67,2.14,0,0-.11.05-.16.09a53.73,53.73,0,0,0-4.88,4.9.46.46,0,0,0-.38,0c-.43.25-.57.73-1,1a31.14,31.14,0,0,1-18.07,6.63c-4.15.25-8.13-.77-12.15-1.49-3.22-.83-5.54-3-8-5.05-3.39-2.79-7-5.38-11.37-6.32-5.92-1.25-11.4-.51-16.11,3.65s-7.11,9.34-9,15a36.16,36.16,0,0,0-2.26,9.12c-.14.86-.75,1.62-.47,2.55a10.34,10.34,0,0,0-.64,3.52h0c-.18,1.43-.45,2.86-.52,4.3-.47,9.23-.25,18.48-.3,27.72,0,.47-.21,1,.35,1.38.16.35.48.37.8.37,6.34,0,12.69,0,19,0,1.29,0,1.23-.74,1.23-1.6.07-8.55-.36-17.11.3-25.65l.6-3.43h0c.07-.62.11-1.25.22-1.87.5-2.87,1.21-5.68,3.15-7.95,1.23-1.45,1.84-1.31,2.71.35a17.24,17.24,0,0,0,2.76,4.2h0a48.78,48.78,0,0,0,16,15.46h0a8.94,8.94,0,0,0,1.28,1.11,69.74,69.74,0,0,0,34.44,9.13,82.77,82.77,0,0,0,28.11-4.71c12.73-4.43,24-11.25,33.23-21.24a46.65,46.65,0,0,0,5.93-7.55c-5.65,1.35-10.84,2.62-16.05,3.82C178.7,164.84,168.91,167,159.15,169.32Z"/><path class="cls-6" d="M213.07,145.52c-.68-.32-1.41-.51-1-1.73,2.76-7.95,3.34-16.19,2.87-24.54,0-.65,0-1.65-.07-2.86a46.83,46.83,0,0,0-1.28-8.5A81,81,0,0,0,208,90.72,59.06,59.06,0,0,0,201.27,80a23.44,23.44,0,0,0-6-5.75h0c-.19-.66-.9-.57-1.33-.87a23.61,23.61,0,0,0-21.23-3.27c-2,.06-3.74,1-5.53,1.77a14.86,14.86,0,0,1-12.62-.22,25.19,25.19,0,0,1-10.39-9.94,1.64,1.64,0,0,0-.1-.56,29.1,29.1,0,0,1-3.89-16c.13-3.93.07-7.86.08-11.79,0-.74.18-1.64-1-1.63q-9,0-18.07,0c-.66,0-1,.33-1,1.07.21,8-.67,16.1.66,24.1,1,6.3,3,12.23,6.88,17.39h0a34.41,34.41,0,0,0,4.21,5c4.68,4.94,10.38,8.91,14.06,14.8h0c.53,1.25,1.06,2.51,1.6,3.76,1.56,3.66,1.07,7.53,1.18,11.33-.25,1.56-.48,3.12-.73,4.68-.17,1-.4,1.5-1.72.9a37.74,37.74,0,0,0-7.08-2.9l18.19,40.8c1.19,2.77,2.39,5.54,3.56,8.31.33.78.73.94,1.61.72l33.42-7.56c4.69-1,9.4-2,14.05-3.16,3.18-.81,6.47-1.24,9.91-2.5C217.5,147.51,215.27,146.54,213.07,145.52Z"/></svg>