<svg xmlns="http://www.w3.org/2000/svg" xmlns:xlink="http://www.w3.org/1999/xlink" viewBox="0 0 255.66 255.66"><defs><style>.cls-1{fill:none;}.cls-2{isolation:isolate;}.cls-3{fill:#1597d2;}.cls-14,.cls-4{fill:#fff;}.cls-5{clip-path:url(#clip-path);}.cls-6{fill:url(#linear-gradient);}.cls-7{fill:#d6d6d6;}.cls-8{fill:url(#linear-gradient-2);}.cls-9{fill:url(#linear-gradient-3);}.cls-10{fill:url(#linear-gradient-4);}.cls-11{fill:url(#linear-gradient-5);}.cls-12{fill:url(#linear-gradient-6);}.cls-13,.cls-20{fill:#37dd00;}.cls-14{mix-blend-mode:soft-light;}.cls-15{opacity:0.3;}.cls-16{fill:url(#linear-gradient-7);}.cls-17{fill:url(#linear-gradient-8);}.cls-18{fill:url(#linear-gradient-9);}.cls-19{fill:url(#linear-gradient-10);}.cls-20{mix-blend-mode:overlay;}.cls-21{opacity:0.1;}.cls-22{mix-blend-mode:screen;fill:url(#radial-gradient);}.cls-23{fill:url(#linear-gradient-11);}.cls-24{fill:url(#linear-gradient-12);}</style><clipPath id="clip-path"><path id="SVGID" class="cls-1" d="M241,127.83a113.2,113.2,0,1,1-113.2-113.2A113.2,113.2,0,0,1,241,127.83Z"/></clipPath><linearGradient id="linear-gradient" x1="127.83" y1="241.03" x2="127.83" y2="14.63" gradientUnits="userSpaceOnUse"><stop offset="0.13" stop-color="#00b8ff"/><stop offset="0.28" stop-color="#33c6ff"/><stop offset="0.47" stop-color="#6cd6ff"/><stop offset="0.64" stop-color="#99e3ff"/><stop offset="0.79" stop-color="#b9ecff"/><stop offset="0.91" stop-color="#cdf1ff"/><stop offset="1" stop-color="#d4f3ff"/></linearGradient><linearGradient id="linear-gradient-2" x1="55.5" y1="69.91" x2="181.72" y2="160.66" gradientUnits="userSpaceOnUse"><stop offset="0" stop-color="#606060"/><stop offset="0.09" stop-color="#7d7e7f"/><stop offset="0.23" stop-color="#b0b2b5"/><stop offset="0.35" stop-color="#e7e8e8"/><stop offset="0.42" stop-color="#fff"/><stop offset="0.62" stop-color="#a9aaaa"/><stop offset="0.87" stop-color="#868789"/><stop offset="0.93" stop-color="#b4b5b6"/><stop offset="1" stop-color="#f2f3f3"/></linearGradient><linearGradient id="linear-gradient-3" x1="209.34" y1="78.93" x2="140.04" y2="227.9" xlink:href="#linear-gradient-2"/><linearGradient id="linear-gradient-4" x1="40.04" y1="73.91" x2="120.54" y2="231.59" xlink:href="#linear-gradient-2"/><linearGradient id="linear-gradient-5" x1="129.17" y1="39.7" x2="197.64" y2="71.65" xlink:href="#linear-gradient-2"/><linearGradient id="linear-gradient-6" x1="51.54" y1="70.4" x2="220.01" y2="6.91" xlink:href="#linear-gradient-2"/><linearGradient id="linear-gradient-7" x1="114.67" y1="54.12" x2="185.7" y2="85.63" gradientUnits="userSpaceOnUse"><stop offset="0" stop-color="#343841"/><stop offset="1" stop-color="#eff0f2"/></linearGradient><linearGradient id="linear-gradient-8" x1="192.41" y1="85.62" x2="132.65" y2="215.5" xlink:href="#linear-gradient-2"/><linearGradient id="linear-gradient-9" x1="69.06" y1="70.76" x2="127.28" y2="70.76" gradientUnits="userSpaceOnUse"><stop offset="0" stop-color="#eff0f2"/><stop offset="1" stop-color="#343841"/></linearGradient><linearGradient id="linear-gradient-10" x1="69.06" y1="144.72" x2="127.28" y2="144.72" xlink:href="#linear-gradient-2"/><radialGradient id="radial-gradient" cx="87.41" cy="87.06" r="105.54" gradientTransform="translate(-22.61 -13.48) scale(1.16 1.16)" gradientUnits="userSpaceOnUse"><stop offset="0" stop-color="#646464"/><stop offset="0.17" stop-color="#5e5e5e"/><stop offset="0.4" stop-color="#4c4c4c"/><stop offset="0.66" stop-color="#2f2f2f"/><stop offset="0.95" stop-color="#070707"/><stop offset="1"/></radialGradient><linearGradient id="linear-gradient-11" x1="94.32" y1="122.36" x2="165.84" y2="122.36" xlink:href="#linear-gradient"/><linearGradient id="linear-gradient-12" x1="104.63" y1="87.34" x2="149.63" y2="138.34" xlink:href="#linear-gradient-2"/></defs><title>shield</title><g class="cls-2"><g id="Слой_1" data-name="Слой 1"><path class="cls-3" d="M255.66,127.83A127.83,127.83,0,1,1,127.83,0,127.83,127.83,0,0,1,255.66,127.83Z"/><path class="cls-4" d="M249.81,127.83a122,122,0,1,1-122-122A122,122,0,0,1,249.81,127.83Z"/><path class="cls-4" d="M242.79,127.83a115,115,0,1,1-115-115A115,115,0,0,1,242.79,127.83Z"/><g class="cls-5"><path class="cls-6" d="M241,127.83a113.2,113.2,0,1,1-113.2-113.2A113.2,113.2,0,0,1,241,127.83Z"/></g><path class="cls-7" d="M127.28,226.13l-2.23-.87c-.78-.3-19.14-7.62-37.37-30.37-10.56-13.17-19-28.88-25-46.68-7.43-22-11.2-47.39-11.2-75.34V67.24l5.61-.51c.38,0,38.67-3.84,66.06-28l4.08-3.61,4.08,3.61c27.48,24.28,65.68,28,66.06,28l5.61.51v5.63c0,27.95-3.77,53.3-11.2,75.34-6,17.8-14.39,33.51-25,46.68-18.23,22.75-36.59,30.07-37.37,30.37ZM52.65,68.27v4.6c0,27.83,3.75,53.05,11.14,75,6,17.68,14.29,33.27,24.76,46.34,18,22.52,36.14,29.73,36.9,30l1.83.72,1.83-.71c.76-.3,18.86-7.51,36.9-30,10.47-13.07,18.8-28.66,24.76-46.34,7.39-21.93,11.14-47.15,11.14-75v-4.6l-4.59-.42c-.38,0-38.95-3.8-66.7-28.32l-3.34-3-3.34,3C96.28,64,57.62,67.82,57.24,67.85Z"/><path class="cls-8" d="M126.26,222.13c-.73-.29-18.3-7.29-36-29.34C80,179.93,71.79,164.57,65.91,147.13c-7.31-21.69-11-46.68-11-74.26V70.31l2.55-.23c.39,0,39.72-3.9,68-28.87l1.85-1.64,1.85,1.64c28.32,25,67.6,28.84,68,28.87l2.55.23v2.56c0,27.58-3.71,52.57-11,74.26-5.88,17.44-14.08,32.8-24.39,45.66-17.66,22.05-35.23,29.05-36,29.34l-1,.39Z"/><path class="cls-9" d="M199.67,70.31h0v2.56c0,27.58-3.71,52.57-11,74.26-5.88,17.44-14.08,32.8-24.39,45.66-17.66,22.05-35.23,29.05-36,29.34l-1,.39v3l2-.79c.77-.3,19-7.57,37.13-30.2C177,181.42,185.32,165.77,191.3,148c7.41-22,11.17-47.27,11.17-75.16V67.75Z"/><path class="cls-10" d="M90.3,192.79C80,179.93,71.79,164.57,65.91,147.13c-7.31-21.69-11-46.68-11-74.26V70.31h0l-2.8-2.56v5.12c0,27.89,3.76,53.17,11.17,75.16,6,17.74,14.34,33.39,24.85,46.51,18.13,22.63,36.37,29.9,37.14,30.2l2,.79v-3l-1-.39C125.53,221.84,108,214.84,90.3,192.79Z"/><path class="cls-11" d="M197.12,70.08l2.55.23,2.8-2.56-5.1-.46c-.38,0-38.75-3.77-66.38-28.18l-3.71-3.28v3.74l1.85,1.64C157.45,66.22,196.73,70.05,197.12,70.08Z"/><path class="cls-12" d="M57.44,70.08c.39,0,39.72-3.9,68-28.87l1.85-1.64V35.83l-3.71,3.28C96,63.44,57.57,67.26,57.19,67.29l-5.1.46,2.8,2.56Z"/><path class="cls-13" d="M127.28,59.79c20.56,14.9,43.62,21.38,56.49,24-.82,21.09-4.06,40.34-9.63,57.26a134.32,134.32,0,0,1-21.21,40.76,94.4,94.4,0,0,1-25.65,23.22,94.4,94.4,0,0,1-25.65-23.22,134.32,134.32,0,0,1-21.21-40.76c-5.57-16.92-8.81-36.17-9.63-57.26C83.66,81.17,106.72,74.69,127.28,59.79Z"/><path class="cls-14" d="M127.28,60.82c20.44,14.65,43.31,21.08,55.62,23.67-.86,20.73-4.08,39.68-9.56,56.32a133.36,133.36,0,0,1-21.08,40.51,94.32,94.32,0,0,1-25,22.75,94.19,94.19,0,0,1-25-22.76,133.39,133.39,0,0,1-21.07-40.5c-5.48-16.64-8.7-35.59-9.56-56.32,12.31-2.59,35.18-9,55.62-23.67Zm0-1c-20.56,14.9-43.62,21.38-56.49,24,.82,21.09,4.06,40.34,9.63,57.26a134.32,134.32,0,0,0,21.21,40.76,94.4,94.4,0,0,0,25.65,23.22,94.4,94.4,0,0,0,25.65-23.22,134.32,134.32,0,0,0,21.21-40.76c5.57-16.92,8.81-36.17,9.63-57.26-12.87-2.64-35.93-9.12-56.49-24Z"/><path class="cls-15" d="M125.74,60.88C142.6,75.74,161.89,84.43,175,89.08a6.92,6.92,0,0,1,4.46,7.32c-3.19,19.33-8.27,36.84-15.14,52.14s-15.71,28.74-26.1,39.52a105,105,0,0,1-16,13.69c1.93,1.36,3.64,2.45,5.06,3.3a94.4,94.4,0,0,0,25.65-23.22,134.32,134.32,0,0,0,21.21-40.76c5.57-16.92,8.81-36.17,9.63-57.26-12.87-2.64-35.93-9.12-56.49-24Z"/><path class="cls-15" d="M127.28,59.79c-20.56,14.9-43.62,21.38-56.49,24,.82,21.09,4.06,40.34,9.63,57.26a134.32,134.32,0,0,0,21.21,40.76,94.4,94.4,0,0,0,25.65,23.22,94.4,94.4,0,0,0,25.65-23.22,134.32,134.32,0,0,0,21.21-40.76c5.57-16.92,8.81-36.17,9.63-57.26C170.9,81.17,147.84,74.69,127.28,59.79Zm45.79,80.93a132.87,132.87,0,0,1-21,40.42,93.8,93.8,0,0,1-24.76,22.6,94.26,94.26,0,0,1-24.77-22.6,133.07,133.07,0,0,1-21-40.42c-5.46-16.55-8.67-35.39-9.54-56,12.35-2.61,35-9,55.33-23.54,20.31,14.5,43,20.93,55.33,23.54C181.73,105.33,178.53,124.17,173.07,140.72Z"/><path class="cls-16" d="M127.28,57.7c21.07,15.62,44.91,22.14,58.22,24.74l-1.73,1.37c-12.87-2.64-35.93-9.12-56.49-24Z"/><path class="cls-17" d="M152.93,181.83a134.32,134.32,0,0,0,21.21-40.76c5.57-16.92,8.81-36.17,9.63-57.26l1.73-1.37c-.73,21.82-4,41.68-9.77,59.16a135.86,135.86,0,0,1-21.47,41.27c-10.6,13.58-21.3,20.88-27,24.12v-1.94A94.4,94.4,0,0,0,152.93,181.83Z"/><path class="cls-18" d="M127.28,57.7v2.09c-20.56,14.9-43.62,21.38-56.49,24l-1.73-1.37C82.37,79.84,106.21,73.32,127.28,57.7Z"/><path class="cls-19" d="M127.28,205.05V207c-5.68-3.24-16.38-10.54-27-24.12A135.86,135.86,0,0,1,78.83,141.6a186.35,186.35,0,0,1-6.77-27.95,240.61,240.61,0,0,1-3-31.21l1.73,1.37c.82,21.09,4.06,40.34,9.63,57.26a134.32,134.32,0,0,0,21.21,40.76A94.4,94.4,0,0,0,127.28,205.05Z"/><path class="cls-15" d="M125.6,50.42a2.24,2.24,0,1,1,2.24,2.24A2.24,2.24,0,0,1,125.6,50.42Z"/><path class="cls-13" d="M125,49.86a2.24,2.24,0,1,1,2.24,2.24A2.24,2.24,0,0,1,125,49.86Z"/><path class="cls-15" d="M125.6,215.62a2.24,2.24,0,1,1,2.24,2.24A2.24,2.24,0,0,1,125.6,215.62Z"/><path class="cls-20" d="M125,215.06a2.24,2.24,0,1,1,2.24,2.24A2.24,2.24,0,0,1,125,215.06Z"/><path class="cls-15" d="M154.24,66.07a2.24,2.24,0,1,1,2.24,2.25A2.25,2.25,0,0,1,154.24,66.07Z"/><path class="cls-20" d="M153.68,65.51a2.25,2.25,0,1,1,2.24,2.24A2.25,2.25,0,0,1,153.68,65.51Z"/><path class="cls-15" d="M101.44,66.07a2.25,2.25,0,1,0-2.24,2.25A2.25,2.25,0,0,0,101.44,66.07Z"/><path class="cls-20" d="M100.88,65.51a2.25,2.25,0,1,0-2.25,2.24A2.25,2.25,0,0,0,100.88,65.51Z"/><path class="cls-15" d="M189,76.9a2.24,2.24,0,1,1,2.24,2.24A2.24,2.24,0,0,1,189,76.9Z"/><path class="cls-20" d="M188.4,76.34a2.24,2.24,0,1,1,2.24,2.24A2.24,2.24,0,0,1,188.4,76.34Z"/><path class="cls-15" d="M66.72,76.9a2.24,2.24,0,1,0-2.24,2.24A2.24,2.24,0,0,0,66.72,76.9Z"/><path class="cls-20" d="M66.16,76.34a2.24,2.24,0,1,0-2.24,2.24A2.24,2.24,0,0,0,66.16,76.34Z"/><path class="cls-15" d="M184.47,131a2.25,2.25,0,1,1,2.24,2.24A2.24,2.24,0,0,1,184.47,131Z"/><path class="cls-20" d="M183.91,130.47a2.25,2.25,0,1,1,2.24,2.24A2.24,2.24,0,0,1,183.91,130.47Z"/><path class="cls-15" d="M71.21,131A2.25,2.25,0,1,0,69,133.27,2.24,2.24,0,0,0,71.21,131Z"/><path class="cls-20" d="M70.65,130.47a2.25,2.25,0,1,0-2.25,2.24A2.24,2.24,0,0,0,70.65,130.47Z"/><path class="cls-15" d="M164.45,177.52a2.24,2.24,0,1,1,2.24,2.24A2.24,2.24,0,0,1,164.45,177.52Z"/><path class="cls-20" d="M163.89,177a2.24,2.24,0,1,1,2.24,2.24A2.24,2.24,0,0,1,163.89,177Z"/><path class="cls-15" d="M91.23,177.52A2.24,2.24,0,1,0,89,179.76,2.24,2.24,0,0,0,91.23,177.52Z"/><path class="cls-20" d="M90.67,177a2.24,2.24,0,1,0-2.24,2.24A2.24,2.24,0,0,0,90.67,177Z"/><g class="cls-21"><path class="cls-4" d="M152.56,74q.09.6.18,1.26c.19,1.33.39,2.76.61,4.3.1.77.24,1.56.33,2.39s.17,1.66.27,2.53l.57,5.47c.28,3.82.64,8,.76,12.38,0,1.1.09,2.22.13,3.35s0,2.28,0,3.43l0,3.52c0,1.19,0,2.38-.06,3.59-.06,2.41-.09,4.88-.25,7.36-.07,1.24-.14,2.5-.2,3.76s-.2,2.51-.29,3.79-.21,2.54-.32,3.82-.28,2.55-.41,3.84-.28,2.57-.44,3.86l-.54,3.85c-.7,5.15-1.65,10.28-2.65,15.32s-2.19,10-3.49,14.7-2.67,9.29-4,13.6c-.5,1.49-1,2.94-1.5,4.37a102.87,102.87,0,0,0,10.19-10.84q1-2.37,2.07-4.84c2-4.65,3.78-9.55,5.57-14.56s3.38-10.19,4.82-15.42l1.09-3.93c.34-1.31.66-2.63,1-3.94s.66-2.62,1-3.94.57-2.63.86-3.94.59-2.61.82-3.92.49-2.61.74-3.91c.51-2.58.89-5.16,1.29-7.69.19-1.27.41-2.53.56-3.78s.31-2.49.47-3.71.3-2.45.45-3.65.22-2.39.33-3.56c.5-4.7.7-9.16,1-13.29.07-2.07.11-4,.16-5.93,0-.78,0-1.54,0-2.28A161.34,161.34,0,0,1,152.56,74Z"/><path class="cls-4" d="M112,193.34c-.36-1.05-.73-2.12-1.09-3.2-1.39-4.31-2.8-8.85-4-13.6s-2.42-9.68-3.5-14.7-1.94-10.17-2.64-15.32l-.54-3.85c-.16-1.29-.29-2.58-.44-3.86s-.3-2.56-.42-3.84-.21-2.56-.31-3.82-.24-2.53-.29-3.79-.13-2.52-.2-3.76c-.16-2.48-.2-4.95-.25-7.36,0-1.21-.08-2.4-.06-3.59l0-3.52c0-1.15,0-2.3,0-3.43s.09-2.25.14-3.35c.11-4.41.48-8.56.75-12.38.2-1.91.4-3.74.58-5.47.09-.87.18-1.71.27-2.53s.22-1.62.32-2.39c.22-1.54.43-3,.62-4.3,0-.3.08-.6.12-.88a162.78,162.78,0,0,1-21,7.21c0,.67,0,1.35,0,2,.05,1.88.09,3.86.16,5.93.25,4.13.45,8.59.94,13.29.11,1.17.23,2.36.34,3.56s.3,2.42.45,3.65.31,2.46.46,3.71.38,2.51.57,3.78c.4,2.53.77,5.11,1.29,7.69.24,1.3.49,2.6.73,3.91s.55,2.61.83,3.92.57,2.62.86,3.94.64,2.63,1,3.94.64,2.63,1,3.94l1.09,3.93c1.43,5.23,3.11,10.38,4.82,15.42s3.61,9.91,5.57,14.56c.34.84.7,1.66,1,2.48l.39.52A103.74,103.74,0,0,0,112,193.34Z"/></g><path class="cls-14" d="M86,154.13c-5.07-15.41-8.21-32.76-9.35-51.67a6.89,6.89,0,0,1,5.19-6.81c13.31-3.23,33.11-9.82,51-22.8,17.76,12.87,50.84,19.86,50.89,18.42-12.87-2.64-35.93-9.12-56.49-24-20.56,14.9-43.62,21.38-56.49,24,.82,21.08,4.06,40.34,9.63,57.26a134.32,134.32,0,0,0,21.21,40.76,104.84,104.84,0,0,0,11.45,12.49c-1.93-2.09-3.89-4.38-5.85-6.89A134.32,134.32,0,0,1,86,154.13Z"/><path class="cls-22" d="M127.28,59.79c20.56,14.9,43.62,21.38,56.49,24-.82,21.09-4.06,40.34-9.63,57.26a134.32,134.32,0,0,1-21.21,40.76,94.4,94.4,0,0,1-25.65,23.22,94.4,94.4,0,0,1-25.65-23.22,134.32,134.32,0,0,1-21.21-40.76c-5.57-16.92-8.81-36.17-9.63-57.26C83.66,81.17,106.72,74.69,127.28,59.79Z"/><polygon class="cls-23" points="117.98 151.94 94.32 128.28 105.63 116.97 117.98 129.31 154.53 92.77 165.84 104.08 117.98 151.94"/><path class="cls-24" d="M118,153.08,93.19,128.29l12.44-12.45L118,128.18l36.55-36.54L167,104.08ZM95.45,128.29,118,150.81l46.73-46.73L154.53,93.9,118,130.45,105.63,118.1Z"/></g></g></svg>