<svg id="Слой_1" data-name="Слой 1" xmlns="http://www.w3.org/2000/svg" xmlns:xlink="http://www.w3.org/1999/xlink" viewBox="0 0 255.66 255.66"><defs><style>.cls-1{fill:none;}.cls-2{fill:#1597d2;}.cls-3,.cls-68,.cls-7{fill:#fff;}.cls-4{clip-path:url(#clip-path);}.cls-5{fill:url(#linear-gradient);}.cls-6{opacity:0.5;}.cls-10,.cls-11,.cls-12,.cls-13,.cls-14,.cls-15,.cls-16,.cls-17,.cls-18,.cls-19,.cls-20,.cls-21,.cls-22,.cls-23,.cls-24,.cls-25,.cls-26,.cls-27,.cls-28,.cls-29,.cls-30,.cls-31,.cls-32,.cls-33,.cls-34,.cls-35,.cls-36,.cls-37,.cls-38,.cls-39,.cls-40,.cls-41,.cls-42,.cls-43,.cls-44,.cls-45,.cls-46,.cls-47,.cls-48,.cls-49,.cls-50,.cls-51,.cls-52,.cls-53,.cls-54,.cls-55,.cls-56,.cls-57,.cls-58,.cls-59,.cls-60,.cls-61,.cls-62,.cls-63,.cls-64,.cls-65,.cls-66,.cls-67,.cls-68,.cls-69,.cls-7,.cls-70,.cls-8,.cls-9{fill-rule:evenodd;}.cls-7{opacity:0;}.cls-8{fill:#fafafa;opacity:0.02;}.cls-9{fill:#f5f5f5;opacity:0.04;}.cls-10{fill:#f0f0f0;opacity:0.06;}.cls-11{fill:#ebebeb;opacity:0.08;}.cls-12{fill:#e6e6e6;opacity:0.1;}.cls-13{fill:#e1e1e1;opacity:0.12;}.cls-14{fill:#dcdcdc;opacity:0.14;}.cls-15{fill:#d7d7d7;opacity:0.16;}.cls-16{fill:#d2d2d2;opacity:0.18;}.cls-17{fill:#cdcdcd;opacity:0.2;}.cls-18{fill:#c8c8c8;opacity:0.22;}.cls-19{fill:#c3c3c3;opacity:0.24;}.cls-20{fill:#bebebe;opacity:0.25;}.cls-21{fill:#b9b9b9;opacity:0.27;}.cls-22{fill:#b4b4b4;opacity:0.29;}.cls-23{fill:#afafaf;opacity:0.31;}.cls-24{fill:#aaa;opacity:0.33;}.cls-25{fill:#a5a5a5;opacity:0.35;}.cls-26{fill:#a0a0a0;opacity:0.37;}.cls-27{fill:#9b9b9b;opacity:0.39;}.cls-28{fill:#969696;opacity:0.41;}.cls-29{fill:#919191;opacity:0.43;}.cls-30{fill:#8c8c8c;opacity:0.45;}.cls-31{fill:#878787;opacity:0.47;}.cls-32{fill:#828282;opacity:0.49;}.cls-33{fill:#7d7d7d;opacity:0.51;}.cls-34{fill:#787878;opacity:0.53;}.cls-35{fill:#737373;opacity:0.55;}.cls-36{fill:#6e6e6e;opacity:0.57;}.cls-37{fill:#696969;opacity:0.59;}.cls-38{fill:#646464;opacity:0.61;}.cls-39{fill:#5f5f5f;opacity:0.63;}.cls-40{fill:#5a5a5a;opacity:0.65;}.cls-41{fill:#555;opacity:0.67;}.cls-42{fill:#505050;opacity:0.69;}.cls-43{fill:#4b4b4b;opacity:0.71;}.cls-44{fill:#464646;opacity:0.73;}.cls-45{fill:#414141;opacity:0.75;}.cls-46{fill:#3c3c3c;opacity:0.76;}.cls-47{fill:#373737;opacity:0.78;}.cls-48{fill:#323232;opacity:0.8;}.cls-49{fill:#2d2d2d;opacity:0.82;}.cls-50{fill:#282828;opacity:0.84;}.cls-51{fill:#232323;opacity:0.86;}.cls-52{fill:#1e1e1e;opacity:0.88;}.cls-53{fill:#191919;opacity:0.9;}.cls-54{fill:#141414;opacity:0.92;}.cls-55{fill:#0f0f0f;opacity:0.94;}.cls-56{fill:#0a0a0a;opacity:0.96;}.cls-57{fill:#050505;opacity:0.98;}.cls-59{fill:url(#GradientFill_12);}.cls-60{fill:url(#GradientFill_11);}.cls-61{fill:url(#GradientFill_10);}.cls-62{fill:url(#GradientFill_9);}.cls-63{fill:url(#GradientFill_10-2);}.cls-64{fill:url(#GradientFill_7);}.cls-65{fill:url(#GradientFill_6);}.cls-66{fill:url(#GradientFill_4);}.cls-67{fill:url(#GradientFill_3);}.cls-69{fill:url(#GradientFill_2);}.cls-70{fill:url(#GradientFill_2-2);}</style><clipPath id="clip-path"><path class="cls-1" d="M241.15,127.83A113.32,113.32,0,1,1,127.83,14.51,113.33,113.33,0,0,1,241.15,127.83Z"/></clipPath><linearGradient id="linear-gradient" x1="127.83" y1="241.15" x2="127.83" y2="14.51" gradientUnits="userSpaceOnUse"><stop offset="0.13" stop-color="#00b8ff"/><stop offset="0.28" stop-color="#33c6ff"/><stop offset="0.47" stop-color="#6cd6ff"/><stop offset="0.64" stop-color="#99e3ff"/><stop offset="0.79" stop-color="#b9ecff"/><stop offset="0.91" stop-color="#cdf1ff"/><stop offset="1" stop-color="#d4f3ff"/></linearGradient><linearGradient id="GradientFill_12" x1="201.95" y1="128.37" x2="88.45" y2="108.36" gradientUnits="userSpaceOnUse"><stop offset="0" stop-color="#064ca6"/><stop offset="0.35" stop-color="#008bda"/><stop offset="0.62" stop-color="#6eb6eb"/><stop offset="1" stop-color="#fff"/></linearGradient><linearGradient id="GradientFill_11" x1="145.52" y1="222.05" x2="99.52" y2="22.81" gradientUnits="userSpaceOnUse"><stop offset="0" stop-color="#064ca6"/><stop offset="0.2" stop-color="#008bda"/><stop offset="0.45" stop-color="#6eb6eb"/><stop offset="1" stop-color="#fff"/></linearGradient><radialGradient id="GradientFill_10" cx="-595.25" cy="-1155.02" r="281.34" gradientTransform="translate(298.96 499.97) scale(0.32 0.32)" gradientUnits="userSpaceOnUse"><stop offset="0" stop-color="#fff"/><stop offset="0.35" stop-color="#91d4f9"/><stop offset="0.75" stop-color="#00a3ef"/><stop offset="1" stop-color="#134b9a"/></radialGradient><radialGradient id="GradientFill_9" cx="-531.83" cy="-1150.93" r="229.69" gradientTransform="translate(298.96 499.97) scale(0.32 0.32)" gradientUnits="userSpaceOnUse"><stop offset="0" stop-color="#fff"/><stop offset="0.28" stop-color="#91d4f9"/><stop offset="0.61" stop-color="#00a3ef"/><stop offset="1" stop-color="#134b9a"/></radialGradient><radialGradient id="GradientFill_10-2" cx="-529.21" cy="-1072.67" r="122.05" xlink:href="#GradientFill_10"/><radialGradient id="GradientFill_7" cx="-610.19" cy="-1142.51" r="183.53" gradientTransform="translate(298.96 499.97) scale(0.32 0.32)" gradientUnits="userSpaceOnUse"><stop offset="0" stop-color="#fff"/><stop offset="0.51" stop-color="#9dd9fa"/><stop offset="0.65" stop-color="#94cfea"/><stop offset="0.85" stop-color="#31baf5"/><stop offset="1" stop-color="#134b9a"/></radialGradient><linearGradient id="GradientFill_6" x1="82.34" y1="201.7" x2="101.18" y2="120.08" gradientUnits="userSpaceOnUse"><stop offset="0" stop-color="#064ca6"/><stop offset="0.1" stop-color="#008bda"/><stop offset="0.26" stop-color="#7accf8"/><stop offset="1" stop-color="#fff"/></linearGradient><linearGradient id="GradientFill_4" x1="101.98" y1="209.32" x2="103.35" y2="130.47" gradientUnits="userSpaceOnUse"><stop offset="0" stop-color="#064ca6"/><stop offset="0.2" stop-color="#008bda"/><stop offset="0.37" stop-color="#7accf8"/><stop offset="1" stop-color="#fff"/></linearGradient><linearGradient id="GradientFill_3" x1="117.86" y1="83.08" x2="108.09" y2="113.14" gradientUnits="userSpaceOnUse"><stop offset="0" stop-color="#7accf8"/><stop offset="1" stop-color="#fff"/></linearGradient><linearGradient id="GradientFill_2" x1="169.8" y1="84.25" x2="109.93" y2="116.09" gradientUnits="userSpaceOnUse"><stop offset="0" stop-color="#134b9a"/><stop offset="0.25" stop-color="#00a3ef"/><stop offset="0.65" stop-color="#91d4f9"/><stop offset="1" stop-color="#fff"/></linearGradient><linearGradient id="GradientFill_2-2" x1="169.32" y1="78.53" x2="100.79" y2="99.48" xlink:href="#GradientFill_2"/></defs><title>spriyae vidnovlennyu</title><path class="cls-2" d="M255.66,127.83A127.83,127.83,0,1,1,127.83,0,127.83,127.83,0,0,1,255.66,127.83Z"/><path class="cls-3" d="M249.81,127.83a122,122,0,1,1-122-122A122,122,0,0,1,249.81,127.83Z"/><path class="cls-3" d="M242.91,127.83A115.08,115.08,0,1,1,127.83,12.75,115.08,115.08,0,0,1,242.91,127.83Z"/><g class="cls-4"><path class="cls-5" d="M241.15,127.83A113.32,113.32,0,1,1,127.83,14.51,113.33,113.33,0,0,1,241.15,127.83Z"/></g><g class="cls-6"><path class="cls-7" d="M190.32,200.84c0,7.44-27.45,13.48-61.32,13.48s-61.32-6-61.32-13.48S95.13,187.35,129,187.35,190.32,193.39,190.32,200.84Z"/><path class="cls-8" d="M189.13,200.84c0,7.3-26.92,13.22-60.13,13.22s-60.13-5.92-60.13-13.22S95.79,187.61,129,187.61,189.13,193.53,189.13,200.84Z"/><path class="cls-9" d="M187.94,200.84c0,7.15-26.39,13-58.94,13s-58.95-5.81-58.95-13,26.39-13,59-13S187.94,193.68,187.94,200.84Z"/><path class="cls-10" d="M186.75,200.84c0,7-25.86,12.69-57.75,12.69s-57.76-5.68-57.76-12.69S97.1,188.13,129,188.13,186.75,193.82,186.75,200.84Z"/><path class="cls-11" d="M185.56,200.84c0,6.86-25.32,12.43-56.56,12.43s-56.57-5.57-56.57-12.43S97.76,188.4,129,188.4,185.56,194,185.56,200.84Z"/><path class="cls-12" d="M184.37,200.84c0,6.72-24.79,12.17-55.37,12.17s-55.38-5.45-55.38-12.17S98.41,188.66,129,188.66,184.37,194.11,184.37,200.84Z"/><path class="cls-13" d="M183.19,200.84c0,6.57-24.27,11.91-54.19,11.91s-54.19-5.34-54.19-11.91S99.07,188.92,129,188.92,183.19,194.25,183.19,200.84Z"/><path class="cls-14" d="M182,200.84c0,6.43-23.73,11.65-53,11.65s-53-5.22-53-11.65,23.73-11.66,53-11.66S182,194.4,182,200.84Z"/><path class="cls-15" d="M180.81,200.84c0,6.29-23.2,11.39-51.81,11.39s-51.81-5.1-51.81-11.39,23.19-11.4,51.81-11.4S180.81,194.54,180.81,200.84Z"/><path class="cls-16" d="M179.62,200.84C179.62,207,157,212,129,212s-50.62-5-50.62-11.13S101,189.7,129,189.7,179.62,194.69,179.62,200.84Z"/><path class="cls-17" d="M178.43,200.84c0,6-22.13,10.86-49.43,10.86s-49.43-4.86-49.43-10.86S101.7,190,129,190,178.43,194.83,178.43,200.84Z"/><path class="cls-18" d="M177.24,200.84c0,5.85-21.6,10.6-48.24,10.6s-48.24-4.75-48.24-10.6,21.59-10.61,48.24-10.61S177.24,195,177.24,200.84Z"/><path class="cls-19" d="M176.05,200.84c0,5.71-21.07,10.34-47.05,10.34s-47.06-4.63-47.06-10.34S103,190.49,129,190.49,176.05,195.12,176.05,200.84Z"/><path class="cls-20" d="M174.86,200.84c0,5.56-20.53,10.08-45.86,10.08s-45.87-4.52-45.87-10.08,20.54-10.09,45.87-10.09S174.86,195.26,174.86,200.84Z"/><path class="cls-21" d="M173.67,200.84c0,5.42-20,9.82-44.67,9.82s-44.68-4.4-44.68-9.82S104.32,191,129,191,173.67,195.41,173.67,200.84Z"/><path class="cls-22" d="M172.48,200.84c0,5.28-19.47,9.56-43.48,9.56s-43.49-4.28-43.49-9.56S105,191.27,129,191.27,172.48,195.55,172.48,200.84Z"/><path class="cls-23" d="M171.3,200.84c0,5.13-18.94,9.3-42.3,9.3s-42.3-4.17-42.3-9.3,18.94-9.31,42.3-9.31S171.3,195.7,171.3,200.84Z"/><path class="cls-24" d="M170.11,200.84c0,5-18.41,9-41.11,9s-41.11-4-41.11-9,18.4-9.05,41.11-9.05S170.11,195.84,170.11,200.84Z"/><path class="cls-25" d="M168.92,200.84c0,4.84-17.88,8.77-39.92,8.77s-39.92-3.93-39.92-8.77S107,192.06,129,192.06,168.92,196,168.92,200.84Z"/><path class="cls-26" d="M167.73,200.84c0,4.7-17.34,8.51-38.73,8.51s-38.73-3.81-38.73-8.51,17.34-8.52,38.73-8.52S167.73,196.13,167.73,200.84Z"/><path class="cls-27" d="M166.54,200.84c0,4.55-16.81,8.25-37.54,8.25s-37.54-3.7-37.54-8.25,16.8-8.26,37.54-8.26S166.54,196.27,166.54,200.84Z"/><path class="cls-28" d="M165.35,200.84c0,4.41-16.28,8-36.35,8s-36.35-3.58-36.35-8,16.27-8,36.35-8S165.35,196.42,165.35,200.84Z"/><path class="cls-29" d="M164.16,200.84c0,4.26-15.74,7.73-35.16,7.73s-35.17-3.47-35.17-7.73,15.75-7.74,35.17-7.74S164.16,196.56,164.16,200.84Z"/><path class="cls-30" d="M163,200.84c0,4.12-15.21,7.47-34,7.47S95,205,95,200.84s15.21-7.48,34-7.48S163,196.71,163,200.84Z"/><path class="cls-31" d="M161.78,200.84c0,4-14.68,7.2-32.78,7.2s-32.79-3.22-32.79-7.2,14.68-7.22,32.79-7.22S161.78,196.85,161.78,200.84Z"/><path class="cls-32" d="M160.59,200.84c0,3.83-14.14,6.94-31.59,6.94s-31.6-3.11-31.6-6.94,14.15-7,31.6-7S160.59,197,160.59,200.84Z"/><path class="cls-33" d="M159.4,200.84c0,3.69-13.61,6.68-30.4,6.68s-30.41-3-30.41-6.68,13.61-6.69,30.41-6.69S159.4,197.14,159.4,200.84Z"/><path class="cls-34" d="M158.22,200.84c0,3.54-13.09,6.42-29.22,6.42s-29.22-2.88-29.22-6.42,13.08-6.43,29.22-6.43S158.22,197.28,158.22,200.84Z"/><path class="cls-35" d="M157,200.84c0,3.4-12.55,6.16-28,6.16s-28-2.76-28-6.16,12.55-6.17,28-6.17S157,197.43,157,200.84Z"/><path class="cls-36" d="M155.84,200.84c0,3.25-12,5.9-26.84,5.9s-26.84-2.65-26.84-5.9,12-5.91,26.84-5.91S155.84,197.57,155.84,200.84Z"/><path class="cls-37" d="M154.65,200.84c0,3.11-11.49,5.63-25.65,5.63s-25.65-2.52-25.65-5.63,11.48-5.65,25.65-5.65S154.65,197.72,154.65,200.84Z"/><path class="cls-38" d="M153.46,200.84c0,3-11,5.37-24.46,5.37s-24.46-2.41-24.46-5.37,10.95-5.39,24.46-5.39S153.46,197.86,153.46,200.84Z"/><path class="cls-39" d="M152.27,200.84c0,2.82-10.42,5.11-23.27,5.11s-23.28-2.29-23.28-5.11,10.42-5.12,23.28-5.12S152.27,198,152.27,200.84Z"/><path class="cls-40" d="M151.08,200.84c0,2.68-9.89,4.85-22.08,4.85s-22.09-2.17-22.09-4.85S116.8,196,129,196,151.08,198.15,151.08,200.84Z"/><path class="cls-41" d="M149.89,200.84c0,2.53-9.35,4.59-20.89,4.59s-20.9-2.06-20.9-4.59,9.36-4.6,20.9-4.6S149.89,198.3,149.89,200.84Z"/><path class="cls-42" d="M148.7,200.84c0,2.39-8.82,4.33-19.7,4.33s-19.71-1.94-19.71-4.33,8.82-4.34,19.71-4.34S148.7,198.44,148.7,200.84Z"/><path class="cls-43" d="M147.51,200.84c0,2.24-8.29,4.07-18.51,4.07s-18.52-1.83-18.52-4.07,8.29-4.08,18.52-4.08S147.51,198.58,147.51,200.84Z"/><path class="cls-44" d="M146.33,200.84c0,2.1-7.76,3.8-17.33,3.8s-17.33-1.7-17.33-3.8S119.43,197,129,197,146.33,198.73,146.33,200.84Z"/><path class="cls-45" d="M145.14,200.84c0,1.95-7.23,3.54-16.14,3.54s-16.14-1.59-16.14-3.54,7.22-3.56,16.14-3.56S145.14,198.87,145.14,200.84Z"/><path class="cls-46" d="M144,200.84c0,1.81-6.7,3.28-14.95,3.28s-15-1.47-15-3.28,6.69-3.29,15-3.29S144,199,144,200.84Z"/><path class="cls-47" d="M142.76,200.84c0,1.67-6.16,3-13.76,3s-13.76-1.35-13.76-3,6.16-3,13.76-3S142.76,199.16,142.76,200.84Z"/><path class="cls-48" d="M141.57,200.84c0,1.52-5.63,2.76-12.57,2.76s-12.57-1.24-12.57-2.76,5.62-2.77,12.57-2.77S141.57,199.31,141.57,200.84Z"/><path class="cls-49" d="M140.38,200.84c0,1.38-5.1,2.5-11.38,2.5s-11.39-1.12-11.39-2.5,5.1-2.51,11.39-2.51S140.38,199.45,140.38,200.84Z"/><path class="cls-50" d="M139.19,200.84c0,1.23-4.56,2.24-10.19,2.24s-10.2-1-10.2-2.24,4.57-2.25,10.2-2.25S139.19,199.59,139.19,200.84Z"/><path class="cls-51" d="M138,200.84c0,1.09-4,2-9,2s-9-.88-9-2,4-2,9-2S138,199.74,138,200.84Z"/><path class="cls-52" d="M136.81,200.84c0,.94-3.5,1.71-7.81,1.71s-7.82-.77-7.82-1.71,3.5-1.73,7.82-1.73S136.81,199.88,136.81,200.84Z"/><path class="cls-53" d="M135.62,200.84c0,.8-3,1.45-6.62,1.45s-6.63-.65-6.63-1.45,3-1.46,6.63-1.46S135.62,200,135.62,200.84Z"/><path class="cls-54" d="M134.44,200.84c0,.65-2.44,1.19-5.44,1.19s-5.44-.54-5.44-1.19,2.44-1.2,5.44-1.2S134.44,200.17,134.44,200.84Z"/><path class="cls-55" d="M133.25,200.84c0,.51-1.91.93-4.25.93s-4.25-.42-4.25-.93,1.9-.94,4.25-.94S133.25,200.32,133.25,200.84Z"/><path class="cls-56" d="M132.06,200.84c0,.37-1.38.67-3.06.67s-3.06-.3-3.06-.67,1.37-.68,3.06-.68S132.06,200.46,132.06,200.84Z"/><path class="cls-57" d="M130.87,200.84c0,.22-.84.41-1.87.41s-1.87-.19-1.87-.41.84-.42,1.87-.42S130.87,200.6,130.87,200.84Z"/><path class="cls-58" d="M129.68,200.84c0,.08-.31.14-.68.14s-.68-.06-.68-.14.3-.16.68-.16S129.68,200.75,129.68,200.84Z"/></g><path class="cls-59" d="M125.56,29.57c16,39.9,45,85.21,49.76,112.73,2.63,13.83.29,29.47-9.1,40.19C149.4,202,120,206.79,99.1,189.12c-14.28-11.68-19.32-31.48-16.68-47.92C86.52,113,111.24,79.07,125.56,29.57Z"/><path class="cls-60" d="M125.77,32.43c2.09,13.92,12.52,32.29,22.57,51.39,10.16,18.87,19.95,38.48,23.47,49.73,4.78,15.88,3.46,34-7,46-16,18.89-46.58,19.12-65.72,1.36-15.12-13.56-19.82-28.35-14-47.24C90.52,113.89,122,52.7,125.77,32.43Z"/><path class="cls-61" d="M128.23,191.59c-24.73-.74-45-20.23-44.74-42.41A51.91,51.91,0,0,1,86,133.7c5.3-18.58,34.48-68.1,40-100,8.07,24,37.55,78.11,42.83,95.55,2.25,6.69,4.12,13.34,4.13,19.91C173.22,171.36,153,190.85,128.23,191.59Z"/><path class="cls-62" d="M97,176c-.18-1.06,16.67,15.68,40.15,11.14,17.36-5,27.14-15.24,30.39-27.52,3.26-12.54,0-27.12-8.36-46.46,1.8,18.89-15.75,13.24-21.58,38C128.4,190.6,100.2,180.48,97,176Z"/><path class="cls-63" d="M85,155.64c0,.21.78,8.64,9.11,17.47,10.29,11,25,18.81,42.6,14.35,17.45-5.39,27.93-16.42,31.44-28.74,3.52-12.58.07-26.46-10-43.47,5.88,16.49,7.46,29.38,2.82,40.68-4.6,11.06-15.42,20.53-33.53,24.88C105.13,185.19,89.3,171.23,85,155.64Z"/><path class="cls-64" d="M105.08,177.53c-20.77-11.5-26.71-27.4-5.87-72.63-7.6,29.76-4.78,43.34,3,50.92,7.76,7.27,20.52,8.55,31.67,7C128.61,175.07,114.6,182.19,105.08,177.53Z"/><path class="cls-65" d="M97.54,143.93c0-.12-1.33-8.68-.55-15.06.62-6.82,4.82-17.94,4.85-17.45a19.41,19.41,0,0,0,2.42,6A85.75,85.75,0,0,0,97.54,143.93Z"/><path class="cls-66" d="M98.28,147.7c.4-6.47,4.55-25.19,7.31-31,.45.48,1.15,1.13,2.08,2.12.83.72-1.47,6.3-1.91,18.6s3.87,22.49.72,22S98.21,147.32,98.28,147.7Z"/><path class="cls-67" d="M105.89,116.54c-.08,1.07,2.27,1.43,2.25.9.58-8,5.37-19,5.51-21.78.08-.09-1.7,3.88-4.43,10.16A57.65,57.65,0,0,0,105.89,116.54Z"/><path class="cls-68" d="M105.33,132.39c2.52.08,4.07,3.65,4.07,5.58a4.08,4.08,0,0,1-8.15,0C101.25,136,102.8,132.47,105.33,132.39Z"/><path class="cls-69" d="M146.68,139.35c0-.08,9.26-4.91,8.8-14.69s-2.89-15.55-11.8-30.27a190.4,190.4,0,0,1-15.22-30.94,398.6,398.6,0,0,0,10.75,38.91C143.19,113.87,147.41,126.61,146.68,139.35Z"/><path class="cls-70" d="M128.67,126.28c6.68,0,7.18-8.36,5.71-22-1.5-13.47-5-32.29-7-48.53-.29,16.51-4.31,35-6.13,48.24C119.46,117.41,119.85,125.57,128.67,126.28Z"/></svg>