<svg id="Слой_1" data-name="Слой 1" xmlns="http://www.w3.org/2000/svg" xmlns:xlink="http://www.w3.org/1999/xlink" viewBox="0 0 11.95 12.17"><defs><style>.cls-1{fill:none;}.cls-2{clip-path:url(#clip-path);}.cls-3{fill:#0094d3;}</style><clipPath id="clip-path"><rect class="cls-1" width="11.95" height="12.17"/></clipPath></defs><title>logo</title><g class="cls-2"><path class="cls-3" d="M11.91,7.11a5.71,5.71,0,0,1-.69,1.5,5.5,5.5,0,0,1-1.88,1.75,5.45,5.45,0,0,1-2.71.75H6.31l-.55,0L5.49,11l-.25-.07a3.93,3.93,0,0,1-.66-.22l-.23-.12a3.77,3.77,0,0,1-.59-.32l-.22-.18A3.94,3.94,0,0,1,3,9.67,5,5,0,0,1,1.6,6a4.3,4.3,0,0,1,.61-2,1.34,1.34,0,0,1,.13-.23A4.81,4.81,0,0,1,3,2.9,4,4,0,0,1,6,1.65,4,4,0,0,1,9,2.9a4.43,4.43,0,0,1,1.19,3.18,4.56,4.56,0,0,1-.7,2.57,4.59,4.59,0,0,0,.8-.73,5.44,5.44,0,0,0,.79-1.29A4.47,4.47,0,0,0,9.81,1.29,5.81,5.81,0,0,0,6,0a5.81,5.81,0,0,0-4.3,1.76A5.92,5.92,0,0,0,0,6.08a6,6,0,0,0,1.71,4.35A5.76,5.76,0,0,0,6,12.17a5.79,5.79,0,0,0,4.3-1.74A5.86,5.86,0,0,0,12,7.1Z"/><path class="cls-3" d="M11.63,5.33s0,.12,0,.33a3.77,3.77,0,0,1,0,1,4.19,4.19,0,0,1-.47,1.45A4.46,4.46,0,0,1,9.89,9.58a4.37,4.37,0,0,1-2.29.81H7.15l-.18,0a5.75,5.75,0,0,1-.72-.15A3.44,3.44,0,0,1,5.59,10,5.81,5.81,0,0,1,5,9.55a3.84,3.84,0,0,1-1.39-2.7,3.33,3.33,0,0,1,.3-1.57,1.43,1.43,0,0,1,.2-.36,4.15,4.15,0,0,1,.24-.34A3.62,3.62,0,0,1,4.94,4c.12-.07.23-.16.35-.22l.39-.16a1.69,1.69,0,0,1,.4-.12l.2,0,.1,0h.1a3.21,3.21,0,0,1,1.26.18,2.81,2.81,0,0,1,.39.19A2.6,2.6,0,0,1,9.2,5.07a2.78,2.78,0,0,1,.2.79v.06h0v.31c0,.14-.05.3-.08.45a2.19,2.19,0,0,1-1,1.25,2,2,0,0,1-1.47.24A1.67,1.67,0,0,1,5.62,6a1.39,1.39,0,0,1,.9-.81l.29,0a2.28,2.28,0,0,1,.27,0A1.1,1.1,0,0,1,8,6.21a.84.84,0,0,1-.38.67.68.68,0,0,1-.94-.13.65.65,0,0,1-.1-.33.68.68,0,0,0,.15.29A.53.53,0,0,0,7,6.86a.62.62,0,0,0,.44-.15.64.64,0,0,0-.12-1A.63.63,0,0,0,7,5.6H6.86l-.18.05a.87.87,0,0,0-.48.53c0,.07,0,.11,0,.16s0,.08,0,.12v.11h0v0h0l.06.2c0,.06.06.13.1.18A1,1,0,0,0,7,7.39a1.29,1.29,0,0,0,1.4-.95c0-.07,0-.11,0-.2V6a1.73,1.73,0,0,0-.15-.49,1.6,1.6,0,0,0-.68-.75,1.08,1.08,0,0,0-.24-.12l-.12,0H7.13a2,2,0,0,0-.59,0h0l-.07,0-.13,0a.61.61,0,0,0-.27.08l-.26.11c-.08,0-.15.1-.23.15a2.47,2.47,0,0,0-.42.37c-.06.07-.1.15-.16.23a1,1,0,0,0-.14.24L4.73,6c0,.08,0,.16-.06.24a2.13,2.13,0,0,0,0,.61v.09h0V7l0,.14.06.28a3.46,3.46,0,0,0,.19.54c.08.18.21.33.3.49s.26.27.38.42S5.9,9,6,9.15a4.66,4.66,0,0,0,.5.25c.16.07.32.08.48.14l.13,0H7.6a3.9,3.9,0,0,0,2-.53,4.23,4.23,0,0,0,1.3-1.21,4.29,4.29,0,0,0,.61-1.27,7.06,7.06,0,0,0,.16-.91c0-.22,0-.34,0-.34"/></g></svg>